<svg width="233" height="56" viewBox="0 0 233 56" fill="none" xmlns="http://www.w3.org/2000/svg">
<g filter="url(#filter0_d_106_5)">
<path d="M12.5638 15.5121L17.3229 9.01564L25 9.34773V41.6758L19.5944 42.5893L12.222 32.7602L11.0636 19.81L12.5638 15.5121Z" fill="white"/>
<path d="M37.4362 15.5121L32.6771 9.01564L25 9.34773V41.6758L30.4056 42.5893L37.778 32.7602L38.9364 19.81L37.4362 15.5121Z" fill="white"/>
<path d="M20.4028 47.0716C20.7419 47.392 24.2594 50.483 24.2594 50.483V49.5632L25 51L25.7406 49.6208V50.5977C25.7406 50.5977 28.6066 48.1489 29.3237 47.3353C30.0408 46.5217 20.4028 47.0716 20.4028 47.0716Z" fill="white"/>
<path d="M18.5771 34.0494L17.8388 35.0799H18.7991C18.7991 35.0799 17.9215 37.5224 18.601 37.4365C19.2806 37.3501 19.9886 36.6319 19.9886 36.6319C19.9886 36.6319 20.2436 38.9597 20.5832 39.1896L20.9512 37.4365C20.9512 37.4365 22.1489 38.7869 22.1869 39.3044L22.3953 38.6433C22.3953 38.6433 23.361 39.4344 23.4994 40.4248L25 38.8062L25.0778 42.5888L23.1594 43.0685L20.3598 40.5396C20.3598 40.5396 17.44 38.0394 17.383 37.9247C17.3265 37.8099 15.3905 36.0977 15.6224 35.9479C15.8544 35.798 18.5771 34.0494 18.5771 34.0494Z" fill="white"/>
<path d="M22.6969 25.0118C22.6969 25.0118 22.6684 29.3898 18.0318 29.8173L19.1599 29.4042C19.1599 29.4042 18.0942 29.6629 17.109 28.8867L18.587 28.3449C18.587 28.3449 17.468 27.4152 16.732 28.3449C15.9963 29.2746 14.8918 29.8173 14.8918 29.8173L12.9807 25.6283C12.9807 25.6283 14.5699 26.7213 15.6229 26.5755C15.6229 26.5755 14.7218 26.292 14.9343 24.9385C14.9343 24.9385 15.981 25.6891 16.732 25.7363C16.732 25.7363 16.3246 24.9853 15.9737 23.5525L22.6969 25.0118Z" fill="white"/>
<path d="M25 47.7281C25 47.7281 21.0231 49.902 19.1829 44.999L19.8503 47.7826C19.8503 47.7826 14.4786 47.9909 13.5621 39.7638C13.5621 39.7638 10.5898 41.6753 7.95166 35.9411H8.73791L7.49004 34.9134C7.49004 34.9134 7.94849 33.1985 9.09418 32.8664C9.09418 32.8664 2.57361 31.583 3.02212 22.0095C3.19393 18.3412 7.17581 15.7601 10.3977 18.0807L12.052 29.6823L16.3124 40.4289L22.9921 45.5812L25 47.7281Z" fill="white"/>
<path d="M9.82934 32.0667C9.82934 32.0667 5.03815 31.9772 4.18861 25.4105C3.33906 18.8438 6.91674 17.2774 9.6937 18.3407C12.4707 19.4041 6.19831 24.9389 6.19831 24.9389L10.4031 31.2581L9.82934 32.0667Z" fill="white"/>
<path d="M12.5353 30.8108C12.3115 30.9652 12.0909 31.0979 11.8716 31.2095C9.44729 32.4438 7.36661 31.1276 6.01068 28.9591C4.166 26.0135 3.65781 21.497 5.43693 19.6619C8.64522 16.355 11.5461 19.6619 11.5461 19.6619L12.5353 30.8108Z" fill="white"/>
<path d="M12.052 29.6823C12.052 29.6823 11.9552 30.6196 11.8716 31.2095C9.44729 32.4438 7.36661 31.1276 6.01068 28.9591L7.50089 29.6202C5.75975 28.1109 5.64129 26.1755 5.64129 26.1755C5.94738 27.3446 12.052 29.6823 12.052 29.6823Z" fill="white"/>
<path d="M11.5985 22.6183C11.5985 22.6183 9.13533 19.2943 6.15626 21.1226L6.95834 21.596C6.95834 21.596 5.81265 21.2756 5.46903 23.0688C5.12541 24.862 6.84395 26.6903 6.84395 26.6903L5.64084 26.1764C5.64084 26.1764 8.90836 32.0586 12.052 29.6823L11.5985 22.6183Z" fill="white"/>
<path d="M25 38.8062V47.7281C25 47.7281 21.066 48.6218 18.8307 43.1693C18.8307 43.1693 18.5084 44.0612 19.192 46.1428C19.192 46.1428 15.7065 45.1511 15.57 39.9964C15.57 39.9964 15.0238 42.0763 16.0474 44.2578C15.9891 44.1966 13.738 41.8355 14.6825 38.4107C14.6825 38.4107 11.7441 40.7902 9.69461 36.4289C9.69461 36.4289 10.9931 37.4189 11.7441 37.1228L9.69461 35.3377C9.69461 35.3377 10.5143 32.7602 12.222 32.7602C12.222 32.7602 10.5821 32.5622 9.69461 33.356C9.69461 33.356 9.62588 30.7784 11.2657 29.4892C11.2657 29.4892 8.53264 26.7542 9.01099 23.0661L10.3095 24.7067C10.3095 24.7067 10.2408 21.4637 8.46392 20.3711C8.46392 20.3711 8.94227 18.7498 10.0364 19.3123C10.0364 19.3123 9.96724 17.6919 12.5638 15.5121C12.5629 15.5135 12.5633 15.5157 12.5633 15.5171C12.5358 15.7106 11.5103 23.0152 14.4098 25.8371H13.3876C13.3876 25.8371 14.8882 27.7059 16.5959 27.1101C16.5959 27.1101 16.6976 28.5978 15.2115 29.4897H16.5972C16.5972 29.4897 15.0247 30.4814 15.5709 32.0672C16.118 33.653 18.578 34.0503 18.578 34.0503L16.3911 35.7359L18.304 35.3386C18.304 35.3386 17.2108 36.4298 18.0309 37.7181C18.8511 39.0074 19.8507 37.3222 19.8507 37.3222C19.8507 37.3222 19.8765 39.7998 21.038 40.4937V37.818C21.038 37.818 22.1313 39.6018 22.1313 41.0895L22.4514 39.4038C22.4514 39.4038 23.2928 40.6917 23.2928 42.0794L25.0005 38.8085L25 38.8062Z" fill="white"/>
<path d="M25 43.9203L25 47.7281C25 47.7281 21.066 48.6218 18.8307 43.1693L18.8289 43.1729C18.8122 43.2256 18.5305 44.1242 19.1929 46.1433C19.1929 46.1433 15.7079 45.1515 15.5709 39.9973C15.5709 39.9973 15.0247 42.0767 16.0474 44.2578C15.9896 44.1975 13.7389 41.8355 14.6838 38.4111C14.6838 38.4111 11.7445 40.7893 9.69461 36.4289C9.69461 36.4289 10.8471 37.3082 11.608 37.1615C11.655 37.1539 11.7011 37.1399 11.7441 37.1228L11.7423 37.1215L10.8412 36.3353L9.69461 35.3377C9.69461 35.3377 10.5152 32.7611 12.2229 32.7611C12.2229 32.7611 10.5817 32.5635 9.69461 33.356C9.69461 33.356 9.62679 30.7793 11.2671 29.4897C11.2671 29.4897 9.51376 27.7352 9.06208 25.1414C9.06072 25.1383 9.05892 25.1338 9.05892 25.1306C9.05756 25.1212 9.05575 25.1122 9.05439 25.1045C8.94769 24.4696 8.91876 23.7856 9.01189 23.0656L10.31 24.7076C10.31 24.7076 10.2417 21.4641 8.46392 20.372C8.46392 20.372 8.94317 18.7502 10.0378 19.3123C10.0378 19.3123 9.96769 17.6937 12.5656 15.5126C12.5643 15.5139 12.5643 15.5157 12.5643 15.5171C10.1354 21.8439 13.1045 25.0874 13.1045 25.0874C12.4838 25.1909 11.6161 24.2239 11.6161 24.2239C12.1668 28.6383 15.5718 28.047 15.5718 28.047C15.0758 29.3353 13.4943 30.1939 13.3971 30.2465C14.1978 29.8775 14.9388 30.6236 14.9388 30.6236C13.2786 31.7576 14.1368 34.363 14.1368 34.363C15.683 33.6975 16.7333 34.363 16.7333 34.363C15.4656 34.8126 15.2128 37.1062 15.2128 37.1062H17.001C16.1835 40.3546 17.9188 42.2576 17.9188 42.2576C17.9753 40.2637 19.6111 40.18 19.6111 40.18C19.3706 43.0393 21.2397 43.671 21.2397 43.671C21.2975 42.2576 22.4527 42.0092 22.4527 42.0092V44.337C23.4922 44.1701 24.5619 41.6771 24.5619 41.6771L25.0018 43.9217L25 43.9203Z" fill="white"/>
<path d="M31.4238 34.0494L32.1621 35.0799H31.2018C31.2018 35.0799 32.0794 37.5224 31.3999 37.4365C30.7203 37.3501 30.0123 36.6319 30.0123 36.6319C30.0123 36.6319 29.7573 38.9597 29.4177 39.1896L29.0497 37.4365C29.0497 37.4365 27.852 38.7869 27.814 39.3044L27.6056 38.6433C27.6056 38.6433 26.6399 39.4344 26.5015 40.4248L25.0009 38.8062L25.2125 42.5888L26.8415 43.0685L29.6411 40.5396C29.6411 40.5396 32.5609 38.0394 32.6179 37.9247C32.6744 37.8099 34.6104 36.0977 34.3785 35.9479C34.1465 35.798 31.4238 34.0494 31.4238 34.0494Z" fill="white"/>
<path d="M27.6802 25.0118C27.6802 25.0118 27.3714 29.0131 31.2172 29.8173C35.0634 30.6214 31.4229 34.0489 31.4229 34.0489C31.4229 34.0489 36.206 34.6573 37.9485 29.6814C39.691 24.7058 39.1516 22.2646 38.7297 22.1198C38.3079 21.9749 29.5968 18.3398 29.5968 18.3398L17.8211 20.2136L12.0511 23.211C12.0511 23.211 26.9256 22.0379 27.6802 25.0118Z" fill="white"/>
<path d="M25 47.7281C25 47.7281 28.9769 49.9025 30.8171 44.9994L30.1497 47.783C30.1497 47.783 35.5214 47.9914 36.4379 39.7642C36.4379 39.7642 39.4102 41.6758 42.0483 35.9416H41.2621L42.51 34.9138C42.51 34.9138 42.0515 33.1989 40.9058 32.8668C40.9058 32.8668 47.4264 31.5835 46.9779 22.01C46.8061 18.3417 42.8242 15.7605 39.6023 18.0811L37.948 29.6827L33.6876 40.4293L27.0079 45.5817L24.9995 47.729L25 47.7281Z" fill="white"/>
<path d="M45.2259 27.6524C44.0174 30.5053 41.721 32.6814 38.9359 31.5061C38.6131 31.3702 38.283 31.1893 37.948 30.9575L38.9364 19.81C38.9364 19.81 41.8381 16.503 45.0464 19.81C46.5529 21.3624 46.419 24.8368 45.2259 27.6524Z" fill="white"/>
<path d="M45.2259 27.6524C44.0174 30.5053 41.721 32.6814 38.9359 31.5061L38.9359 29.8177C38.9359 29.8177 42.4607 29.2012 43.648 27.5781C43.648 27.5781 43.6023 29.1967 42.9237 29.8177C42.9237 29.8177 44.115 29.4888 45.2259 27.6524Z" fill="white"/>
<path d="M38.4015 22.6183C38.4015 22.6183 40.8647 19.2943 43.8437 21.1226L43.0417 21.596C43.0417 21.596 44.1874 21.2756 44.531 23.0688C44.8746 24.862 43.156 26.6903 43.156 26.6903L44.3592 26.1764C44.3592 26.1764 41.0916 32.0591 37.948 29.6827L38.4015 22.6183Z" fill="white"/>
<path d="M25 38.8062V47.7281C25 47.7281 28.934 48.6218 31.1693 43.1693C31.1693 43.1693 31.4916 44.0612 30.808 46.1428C30.808 46.1428 34.2935 45.1511 34.43 39.9964C34.43 39.9964 34.9762 42.0763 33.9526 44.2578C34.0109 44.1966 36.262 41.8355 35.3175 38.4107C35.3175 38.4107 38.2559 40.7902 40.3054 36.4289C40.3054 36.4289 39.0069 37.4189 38.2559 37.1228L40.3054 35.3377C40.3054 35.3377 39.4857 32.7602 37.778 32.7602C37.778 32.7602 39.4179 32.5622 40.3054 33.356C40.3054 33.356 40.3741 30.7784 38.7343 29.4892C38.7343 29.4892 41.4674 26.7542 40.989 23.0661L39.6905 24.7067C39.6905 24.7067 39.7592 21.4637 41.5361 20.3711C41.5361 20.3711 41.0577 18.7498 39.9636 19.3123C39.9636 19.3123 40.0328 17.6919 37.4362 15.5121C37.4371 15.5135 37.4366 15.5157 37.4366 15.5171C37.4642 15.7106 38.4897 23.0152 35.5902 25.8371H36.6124C36.6124 25.8371 35.1118 27.7059 33.4041 27.1101C33.4041 27.1101 33.3024 28.5978 34.7885 29.4897H33.4028C33.4028 29.4897 34.9753 30.4814 34.4291 32.0672C33.882 33.653 31.422 34.0503 31.422 34.0503L33.6089 35.7359L31.696 35.3386C31.696 35.3386 32.7892 36.4298 31.9691 37.7181C31.1489 39.0074 30.1493 37.3222 30.1493 37.3222C30.1493 37.3222 30.1235 39.7998 28.962 40.4937V37.818C28.962 37.818 27.8687 39.6018 27.8687 41.0895L27.5486 39.4038C27.5486 39.4038 26.7072 40.6917 26.7072 42.0794L24.9995 38.8085L25 38.8062Z" fill="white"/>
<path d="M22.6969 25.0118L15.6229 22.1202C15.6229 22.1202 16.1112 26.2767 19.1599 26.5481C22.2086 26.819 22.6969 25.0118 22.6969 25.0118Z" fill="white"/>
<path d="M22.6969 25.0118C22.6969 25.0118 22.2506 28.0735 18.9117 28.6999C18.9117 28.6999 22.0503 27.2708 21.3825 25.0118H22.6969Z" fill="white"/>
<path d="M21.473 25.7363C21.473 25.7363 19.7128 28.7197 15.9733 25.7363C15.9733 25.7363 18.8927 29.2467 21.473 26.5755C21.473 26.5755 22.4319 25.7377 21.473 25.7363Z" fill="white"/>
<path d="M16.7971 23.4211L21.5873 25.3529C21.5873 25.3529 18.0472 27.5687 16.7971 23.4211Z" fill="white"/>
<path d="M27.6802 25.0118L34.7542 22.1202C34.7542 22.1202 34.2659 26.2767 31.2172 26.5481C28.1685 26.819 27.6802 25.0118 27.6802 25.0118Z" fill="white"/>
<path d="M27.6802 25.0118C27.6802 25.0118 28.1265 28.0735 31.4654 28.6999C31.4654 28.6999 28.3267 27.2708 28.9945 25.0118H27.6802Z" fill="white"/>
<path d="M28.9041 25.7363C28.9041 25.7363 30.6642 28.7197 34.4038 25.7363C34.4038 25.7363 31.4844 29.2467 28.9041 26.5755C28.9041 26.5755 27.9452 25.7377 28.9041 25.7363Z" fill="white"/>
<path d="M33.268 23.5206L28.4778 25.4524C28.4778 25.4524 32.0179 27.6681 33.268 23.5206Z" fill="white"/>
<path d="M39.6905 24.7067L40.989 23.0647C41.4244 26.4135 39.2099 28.9776 38.8007 29.4208C38.7582 29.4658 38.7352 29.4888 38.7352 29.4888C40.3741 30.7784 40.3058 33.3551 40.3058 33.3551C39.4188 32.5626 37.778 32.7602 37.778 32.7602C39.4857 32.7602 40.3058 35.3368 40.3058 35.3368L38.2559 37.1228C39.0078 37.4194 40.3054 36.4289 40.3054 36.4289C38.2555 40.7893 35.3184 38.4107 35.3184 38.4107C36.262 41.8351 34.0109 44.1966 33.9535 44.2569C33.9535 44.2569 33.9548 44.2556 33.9566 44.2506C34.9748 42.0713 34.43 39.9964 34.43 39.9964C34.2944 45.1506 30.808 46.1428 30.808 46.1428C31.493 44.0607 31.1702 43.1693 31.1702 43.1693C28.9344 48.6218 25.0005 47.7272 25.0005 47.7272L25 43.9203L25.4404 41.6753C25.4404 41.6753 26.5101 44.1683 27.5495 44.3352V42.0074C27.5495 42.0074 28.7047 42.2563 28.7626 43.6692C28.7626 43.6692 30.6317 43.0375 30.3912 40.1782C30.3912 40.1782 32.0288 40.2615 32.0853 42.2558C32.0853 42.2558 33.8187 40.3528 33.0031 37.1044H34.7899C34.7899 37.1044 34.5372 34.8108 33.2694 34.3612C33.2694 34.3612 34.3197 33.6957 35.866 34.3612C35.866 34.3612 36.7245 31.7554 35.0639 30.6218C35.0639 30.6218 35.8049 29.8758 36.6056 30.2447C36.5084 30.1921 34.9269 29.3335 34.4309 28.0452C34.4309 28.0452 37.8354 28.6369 38.3866 24.2221C38.3866 24.2221 37.5189 25.1891 36.8982 25.0856C36.8982 25.0856 39.8673 21.8421 37.4385 15.5153V15.5108C40.035 17.6919 39.9663 19.3105 39.9663 19.3105C41.0591 18.7484 41.5383 20.3702 41.5383 20.3702C39.7606 21.4623 39.6923 24.7058 39.6923 24.7058L39.6905 24.7067Z" fill="white"/>
<path d="M21.1881 46.5901L23.2584 48.7154V48.1993L24.8824 49.6208L26.5716 48.2083L26.4016 48.9449L29.1306 46.3093L24.9231 45.9138L21.1881 46.5901Z" fill="white"/>
<path d="M21.8993 36.6314H28.2562L26.6706 37.8099L26.7836 37.2209L25.6027 37.9823L25.7406 37.3069L25.0778 38.241L24.0655 37.2637L24.2594 38.0111L21.8993 36.6314Z" fill="white"/>
<path d="M20.3598 35.2194C20.3598 35.2194 26.1091 36.1922 29.486 35.2194L28.9122 35.9402C28.9122 35.9402 20.7957 36.3007 20.3598 35.2194Z" fill="white"/>
<path d="M22.6969 29.3614L24.8824 32.7026V35.6378L25.3255 35.641V32.7665L28.2562 29.3614L25.6027 30.6115L24.8445 30.4531L22.6969 29.3614Z" fill="white"/>
<path d="M22.6969 29.3614L25.1596 30.2474L28.2562 29.3614L25.1596 31.2577L22.6969 29.3614Z" fill="white"/>
<path d="M23.3009 28.9303L25.1596 29.7048L27.6802 28.9303L26.0191 25.4105L25.6027 26.8563L25.4765 25.4105L24.8824 26.6574V25.6288L23.3009 28.9303Z" fill="white"/>
<path d="M21.0977 35.0673C21.4291 35.1321 21.77 35.1852 22.1064 35.1955C22.3858 35.2041 22.6598 35.1811 22.9365 35.209C23.3335 35.1883 23.7567 35.1888 24.2011 35.2189V32.5032L22.12 29.3268C22.12 29.3268 19.6676 31.1249 19.6143 34.26L21.61 33.5751L21.0977 35.0673Z" fill="white"/>
<path d="M20.929 35.0412C20.9545 35.0461 20.98 35.0511 21.0055 35.0561L20.929 35.0412Z" fill="white"/>
<path d="M21.3138 32.6859L19.2435 31.9209C19.3177 32.262 19.3868 32.6049 19.4859 32.9384" fill="white"/>
<path d="M7.79748 18.6134L7.95482 20.1367C7.95482 20.1367 6.18746 20.5677 5.64129 20.97L6.00118 21.429C6.00118 21.429 5.03861 21.6311 5.12361 23.4126C5.12361 23.4126 3.64786 19.562 7.79748 18.6134Z" fill="white"/>
<path d="M42.4982 18.5846L42.2152 20.0503C42.2152 20.0503 43.936 20.2514 44.5762 21.056L44.0838 21.429C44.0838 21.429 45.1314 22.1409 45.1034 23.553C45.0749 24.9646 44.5762 25.7368 44.5762 25.7368C44.5762 25.7368 46.179 24.4475 45.6409 21.6599C45.1029 18.8722 42.4982 18.5846 42.4982 18.5846Z" fill="white"/>
<path d="M15.57 39.9964C15.57 39.9964 15.0238 42.0758 16.0465 44.2569C15.9887 44.1966 13.7375 41.8351 14.6825 38.4107C14.6825 38.4107 11.7445 40.7893 9.69461 36.4289C12.609 39.8317 15.0347 37.6799 15.0347 37.6799C14.3696 39.946 15.1048 41.7761 15.1048 41.7761C14.7684 40.1049 15.7409 38.8877 15.7409 38.8877C15.3602 42.9947 18.587 45.0799 18.587 45.0799C18.2977 43.5941 18.8045 43.19 18.8289 43.1729C18.8122 43.2256 18.5305 44.1242 19.1929 46.1433C19.1929 46.1433 15.7079 45.1515 15.5709 39.9973L15.57 39.9964Z" fill="white"/>
<path d="M18.8289 43.1729C18.8289 43.1729 20.8183 46.3876 22.6969 47.2066L23.0039 46.6032C23.0039 46.6032 24.0243 48.269 24.8824 48.9449L26.9541 47.2066V48.0688C26.9541 48.0688 29.2477 46.2823 31.1702 43.1693C31.1702 43.1693 30.5214 46.2864 26.4016 48.9449L26.402 48.4243L24.8829 49.8575L23.2593 48.1993L23.3656 49.0385C23.3656 49.0385 19.1386 45.664 18.8289 43.1729Z" fill="white"/>
<path d="M11.7423 37.1224C11.8761 37.2272 11.9616 37.2925 11.9616 37.2925C11.8445 37.2646 11.7256 37.22 11.6071 37.1611C10.6346 36.6868 9.69415 35.3368 9.69415 35.3368C9.69415 35.3368 10.5143 32.7602 12.222 32.7602C12.222 32.7602 10.5812 32.5626 9.69415 33.3551C9.69415 33.3551 9.62543 30.7789 11.2657 29.4892C11.2657 29.4892 9.51285 27.7343 9.06118 25.1405C9.47668 27.3059 11.7703 29.5765 11.7703 29.5765C10.2833 30.4814 10.4112 32.5005 10.4112 32.5005C11.4308 31.9983 12.8541 32.703 12.8541 32.703C11.1966 32.8979 10.1784 34.7496 10.1571 35.3368C10.1481 35.5839 10.4677 35.9717 10.8403 36.3344C11.1599 36.6463 11.5162 36.9415 11.7414 37.1206L11.7423 37.1224Z" fill="white"/>
<path d="M38.8007 29.4208C38.7582 29.4658 38.7352 29.4888 38.7352 29.4888C38.321 29.041 38.434 29.1058 38.8007 29.4208Z" fill="white"/>
<path d="M37.778 32.7602C39.4857 32.7602 40.3058 35.3368 40.3058 35.3368L38.2559 37.1228C39.0078 37.4194 40.3054 36.4289 40.3054 36.4289C38.2555 40.7893 35.3184 38.4107 35.3184 38.4107C36.262 41.8351 34.0109 44.1966 33.9535 44.2569C33.9535 44.2569 33.9548 44.2556 33.9566 44.2506C34.0538 44.0963 36.0278 40.8847 34.8744 37.436C34.8744 37.436 37.6293 40.0806 39.6105 37.2646C39.6105 37.2646 38.6488 37.6956 37.7979 37.2646C37.7979 37.2646 38.959 35.7413 39.8664 35.3107C39.8664 35.3107 39.0733 32.9289 37.1758 32.8268C37.1758 32.8268 38.4494 31.8211 39.8664 32.703C39.8664 32.703 40.1521 31.0241 38.7352 29.4888C40.3741 30.7784 40.3058 33.3551 40.3058 33.3551C39.4188 32.5626 37.778 32.7602 37.778 32.7602Z" fill="white"/>
<path d="M24.7265 17.8417L9.79769 18.4469L9.55761 18.1608C9.07293 17.5825 9.22982 14.7453 9.2366 14.6247C9.32748 13.0408 9.65798 10.6648 10.7164 8.33976C13.478 2.27347 19.074 1 23.2819 1C23.7503 1 24.2364 1.0153 24.7265 1.045C25.2166 1.01485 25.7022 1 26.171 1C30.3785 1 35.9736 2.27347 38.7356 8.34066C39.794 10.6657 40.1245 13.0417 40.2159 14.6252C40.2226 14.7458 40.38 17.583 39.8953 18.1608L39.6552 18.4469L24.7265 17.8417Z" fill="white"/>
<path d="M24.6604 1.91618C8.25594 0.881653 9.77554 17.4048 10.0712 17.7576L24.6604 17.1658L39.2497 17.7576C39.5454 17.4048 41.065 0.881653 24.6604 1.91618Z" fill="white"/>
<path d="M10.4185 17.6095C10.4185 17.6095 10.3421 3.0614 24.7305 3.40609V13.8494L10.4185 17.6095Z" fill="white"/>
<path d="M38.9725 17.6095C38.9725 17.6095 39.0489 3.0614 24.6604 3.40609V13.8494L38.9725 17.6095Z" fill="white"/>
<path d="M42.3689 25.5293C36.6581 22.8708 30.737 21.5042 24.769 21.4677C18.8063 21.5042 12.8848 22.8708 7.17445 25.5293L6.0473 26.054L10.0473 17.322L10.1232 17.2563C10.2982 17.1051 14.526 13.552 24.7644 13.3859C35.0173 13.5524 39.2452 17.1051 39.4201 17.2563L39.4961 17.322L43.496 26.054L42.3689 25.5293Z" fill="white"/>
<path d="M39.0132 17.5506C39.0132 17.5506 34.8527 13.9561 24.6605 13.7905C14.4682 13.9561 10.3077 17.5506 10.3077 17.5506L6.87243 25.0492C13.3808 22.019 19.4461 20.9772 24.66 20.9453C29.8744 20.9772 35.9392 22.019 42.4476 25.0492L39.0123 17.5506H39.0132Z" fill="white"/>
<path d="M11.868 17.6226C11.868 17.6226 10.1128 19.6957 8.85862 23.4909C8.85862 23.4909 18.5115 17.8147 34.2514 20.9988C34.2514 20.9988 33.2477 19.0103 28.3258 18.4069C28.3258 18.4069 30.794 17.8782 35.2113 19.4788C35.2113 19.4788 34.3617 17.3724 26.3772 17.1136C26.3772 17.1136 28.3882 16.0791 33.1166 17.1136C33.1166 17.1136 23.9465 12.355 11.868 17.6226Z" fill="white"/>
<path d="M12.7862 17.9758C12.7862 17.9758 12.1998 18.0357 10.6486 22.2062C10.6486 22.2062 13.9446 19.6223 22.5531 19.3163C22.5531 19.3163 20.6863 18.3493 17.2885 18.766C17.2885 18.766 19.0722 18.0622 23.1494 17.9758C23.1494 17.9758 18.7322 15.8204 12.7862 17.9758Z" fill="white"/>
<path d="M10.3077 17.5812L6.87243 25.0798C6.87243 25.0798 10.9221 23.2389 15.9398 21.9726C15.9398 21.9726 11.2314 22.5598 7.49365 24.4993L10.3077 17.5812Z" fill="white"/>
<path d="M11.8996 15.1418C11.8996 15.1418 14.3529 5.38919 22.0449 4.69935C29.7369 4.00952 33.1161 7.88932 33.1161 7.88932C33.1161 7.88932 30.1995 6.25136 24.3381 7.19949C24.3381 7.19949 32.4723 7.02714 32.5247 9.44088C32.5776 11.8546 26.4617 11.1652 26.4617 11.1652L33.8011 12.9755C33.8011 12.9755 20.5267 11.1868 11.8996 15.1418Z" fill="white"/>
<path d="M9.94825 17.2711C9.94825 17.2711 8.74514 4.49281 18.3533 2.57991C18.3533 2.57991 10.4008 4.23766 10.5564 16.7392L9.94825 17.2711Z" fill="white"/>
<path d="M43.8993 18.905C43.8993 18.905 47.7293 20.1619 46.0257 26.3636C46.0257 26.3636 46.958 20.6199 43.8993 18.905Z" fill="white"/>
<path d="M19.9542 9.33524C19.8433 9.27906 19.7735 9.16575 19.7735 9.04197C19.7735 8.91818 19.8433 8.80487 19.9542 8.74869L22.6198 7.39764C22.8108 7.30085 23.0371 7.43891 23.0371 7.65218C23.0371 7.76189 22.974 7.86191 22.8747 7.90953L20.5504 9.02388C20.5449 9.02648 20.5393 9.02076 20.542 9.01539C20.545 9.00945 20.554 9.01156 20.554 9.01821V9.06573C20.554 9.07237 20.545 9.07448 20.542 9.06854C20.5393 9.06317 20.5449 9.05745 20.5504 9.06005L22.8747 10.1744C22.974 10.222 23.0371 10.322 23.0371 10.4317C23.0371 10.645 22.8108 10.7831 22.6198 10.6863L19.9542 9.33524Z" fill="white"/>
<path d="M25.7944 5.65305C25.9683 5.65305 26.0948 5.81728 26.0496 5.98436L24.5195 11.6412C24.4884 11.756 24.3838 11.8358 24.2643 11.8358C24.0904 11.8358 23.964 11.6716 24.0091 11.5045L25.5392 5.84766C25.5703 5.73284 25.6749 5.65305 25.7944 5.65305Z" fill="white"/>
<path d="M30.2839 9.04197C30.2839 9.16575 30.2141 9.27906 30.1033 9.33524L27.4376 10.6863C27.2467 10.7831 27.0203 10.645 27.0203 10.4317C27.0203 10.322 27.0835 10.222 27.1828 10.1744L29.5071 9.06005C29.5125 9.05745 29.5182 9.06317 29.5155 9.06854C29.5125 9.07448 29.5035 9.07237 29.5035 9.06573V9.0182C29.5035 9.01156 29.5125 9.00945 29.5155 9.01539C29.5182 9.02076 29.5125 9.02648 29.5071 9.02388L27.1828 7.90953C27.0835 7.86191 27.0203 7.76189 27.0203 7.65218C27.0203 7.43891 27.2467 7.30085 27.4376 7.39764L30.1033 8.74869C30.2141 8.80487 30.2839 8.91818 30.2839 9.04197Z" fill="white"/>
<path d="M12.5638 15.5121L17.3229 9.01564L25 9.34773V41.6758L19.5944 42.5893L12.222 32.7602L11.0636 19.81L12.5638 15.5121Z" fill="white"/>
<path d="M37.4362 15.5121L32.6771 9.01564L25 9.34773V41.6758L30.4056 42.5893L37.778 32.7602L38.9364 19.81L37.4362 15.5121Z" fill="white"/>
<path d="M20.4028 47.0716C20.7419 47.392 24.2594 50.483 24.2594 50.483V49.5632L25 51L25.7406 49.6208V50.5977C25.7406 50.5977 28.6066 48.1489 29.3237 47.3353C30.0408 46.5217 20.4028 47.0716 20.4028 47.0716Z" fill="white"/>
<path d="M18.5771 34.0494L17.8388 35.0799H18.7991C18.7991 35.0799 17.9215 37.5224 18.601 37.4365C19.2806 37.3501 19.9886 36.6319 19.9886 36.6319C19.9886 36.6319 20.2436 38.9597 20.5832 39.1896L20.9512 37.4365C20.9512 37.4365 22.1489 38.7869 22.1869 39.3044L22.3953 38.6433C22.3953 38.6433 23.361 39.4344 23.4994 40.4248L25 38.8062L25.0778 42.5888L23.1594 43.0685L20.3598 40.5396C20.3598 40.5396 17.44 38.0394 17.383 37.9247C17.3265 37.8099 15.3905 36.0977 15.6224 35.9479C15.8544 35.798 18.5771 34.0494 18.5771 34.0494Z" fill="white"/>
<path d="M22.6969 25.0118C22.6969 25.0118 22.6684 29.3898 18.0318 29.8173L19.1599 29.4042C19.1599 29.4042 18.0942 29.6629 17.109 28.8867L18.587 28.3449C18.587 28.3449 17.468 27.4152 16.732 28.3449C15.9963 29.2746 14.8918 29.8173 14.8918 29.8173L12.9807 25.6283C12.9807 25.6283 14.5699 26.7213 15.6229 26.5755C15.6229 26.5755 14.7218 26.292 14.9343 24.9385C14.9343 24.9385 15.981 25.6891 16.732 25.7363C16.732 25.7363 16.3246 24.9853 15.9737 23.5525L22.6969 25.0118Z" fill="white"/>
<path d="M9.82934 32.0667C9.82934 32.0667 5.03815 31.9772 4.18861 25.4105C3.33906 18.8438 6.91674 17.2774 9.6937 18.3407C12.4707 19.4041 6.19831 24.9389 6.19831 24.9389L10.4031 31.2581L9.82934 32.0667Z" fill="white"/>
<path d="M12.5353 30.8108C12.3115 30.9652 12.0909 31.0979 11.8716 31.2095C9.44729 32.4438 7.36661 31.1276 6.01068 28.9591C4.166 26.0135 3.65781 21.497 5.43693 19.6619C8.64522 16.355 11.5461 19.6619 11.5461 19.6619L12.5353 30.8108Z" fill="white"/>
<path d="M12.052 29.6823C12.052 29.6823 11.9552 30.6196 11.8716 31.2095C9.44729 32.4438 7.36661 31.1276 6.01068 28.9591L7.50089 29.6202C5.75975 28.1109 5.64129 26.1755 5.64129 26.1755C5.94738 27.3446 12.052 29.6823 12.052 29.6823Z" fill="white"/>
<path d="M11.5985 22.6183C11.5985 22.6183 9.13533 19.2943 6.15626 21.1226L6.95834 21.596C6.95834 21.596 5.81265 21.2756 5.46903 23.0688C5.12541 24.862 6.84395 26.6903 6.84395 26.6903L5.64084 26.1764C5.64084 26.1764 8.90836 32.0586 12.052 29.6823L11.5985 22.6183Z" fill="white"/>
<path d="M25 38.8062L24.9995 47.729C24.9995 47.729 21.066 48.6218 18.8307 43.1693C18.8307 43.1693 18.5084 44.0612 19.192 46.1428C19.192 46.1428 15.7065 45.1511 15.57 39.9964C15.57 39.9964 15.0238 42.0763 16.0474 44.2578C15.9891 44.1966 13.738 41.8355 14.6825 38.4107C14.6825 38.4107 11.7441 40.7902 9.69461 36.4289C9.69461 36.4289 10.9931 37.4189 11.7441 37.1228L9.69461 35.3377C9.69461 35.3377 10.5143 32.7602 12.222 32.7602C12.222 32.7602 10.5821 32.5622 9.69461 33.356C9.69461 33.356 9.62588 30.7784 11.2657 29.4892C11.2657 29.4892 8.53264 26.7542 9.01099 23.0661L10.3095 24.7067C10.3095 24.7067 10.2408 21.4637 8.46392 20.3711C8.46392 20.3711 8.94227 18.7498 10.0364 19.3123C10.0364 19.3123 9.96724 17.6919 12.5638 15.5121C12.5629 15.5135 12.5633 15.5157 12.5633 15.5171C12.5358 15.7106 11.5103 23.0152 14.4098 25.8371H13.3876C13.3876 25.8371 14.8882 27.7059 16.5959 27.1101C16.5959 27.1101 16.6976 28.5978 15.2115 29.4897H16.5972C16.5972 29.4897 15.0247 30.4814 15.5709 32.0672C16.118 33.653 18.578 34.0503 18.578 34.0503L16.3911 35.7359L18.304 35.3386C18.304 35.3386 17.2108 36.4298 18.0309 37.7181C18.8511 39.0074 19.8507 37.3222 19.8507 37.3222C19.8507 37.3222 19.8765 39.7998 21.038 40.4937V37.818C21.038 37.818 22.1313 39.6018 22.1313 41.0895L22.4514 39.4038C22.4514 39.4038 23.2928 40.6917 23.2928 42.0794L25.0005 38.8085L25 38.8062Z" fill="white"/>
<path d="M25 43.9203L25 47.7281C25 47.7281 21.066 48.6218 18.8307 43.1693L18.8289 43.1729C18.8122 43.2256 18.5305 44.1242 19.1929 46.1433C19.1929 46.1433 15.7079 45.1515 15.5709 39.9973C15.5709 39.9973 15.0247 42.0767 16.0474 44.2578C15.9896 44.1975 13.7389 41.8355 14.6838 38.4111C14.6838 38.4111 11.7445 40.7893 9.69461 36.4289C9.69461 36.4289 10.8471 37.3082 11.608 37.1615C11.655 37.1539 11.7011 37.1399 11.7441 37.1228L11.7423 37.1215L10.8412 36.3353L9.69461 35.3377C9.69461 35.3377 10.5152 32.7611 12.2229 32.7611C12.2229 32.7611 10.5817 32.5635 9.69461 33.356C9.69461 33.356 9.62679 30.7793 11.2671 29.4897C11.2671 29.4897 9.51376 27.7352 9.06208 25.1414C9.06072 25.1383 9.05892 25.1338 9.05892 25.1306C9.05756 25.1212 9.05575 25.1122 9.05439 25.1045C8.94769 24.4696 8.91876 23.7856 9.01189 23.0656L10.31 24.7076C10.31 24.7076 10.2417 21.4641 8.46392 20.372C8.46392 20.372 8.94317 18.7502 10.0378 19.3123C10.0378 19.3123 9.96769 17.6937 12.5656 15.5126C12.5643 15.5139 12.5643 15.5157 12.5643 15.5171C10.1354 21.8439 13.1045 25.0874 13.1045 25.0874C12.4838 25.1909 11.6161 24.2239 11.6161 24.2239C12.1668 28.6383 15.5718 28.047 15.5718 28.047C15.0758 29.3353 13.4943 30.1939 13.3971 30.2465C14.1978 29.8775 14.9388 30.6236 14.9388 30.6236C13.2786 31.7576 14.1368 34.363 14.1368 34.363C15.683 33.6975 16.7333 34.363 16.7333 34.363C15.4656 34.8126 15.2128 37.1062 15.2128 37.1062H17.001C16.1835 40.3546 17.9188 42.2576 17.9188 42.2576C17.9753 40.2637 19.6111 40.18 19.6111 40.18C19.3706 43.0393 21.2397 43.671 21.2397 43.671C21.2975 42.2576 22.4527 42.0092 22.4527 42.0092V44.337C23.4922 44.1701 24.5619 41.6771 24.5619 41.6771L25.0018 43.9217L25 43.9203Z" fill="white"/>
<path d="M31.4238 34.0494L32.1621 35.0799H31.2018C31.2018 35.0799 32.0794 37.5224 31.3999 37.4365C30.7203 37.3501 30.0123 36.6319 30.0123 36.6319C30.0123 36.6319 29.7573 38.9597 29.4177 39.1896L29.0497 37.4365C29.0497 37.4365 27.852 38.7869 27.814 39.3044L27.6056 38.6433C27.6056 38.6433 26.6399 39.4344 26.5015 40.4248L25.0009 38.8062L25.2125 42.5888L26.8415 43.0685L29.6411 40.5396C29.6411 40.5396 32.5609 38.0394 32.6179 37.9247C32.6744 37.8099 34.6104 36.0977 34.3785 35.9479C34.1465 35.798 31.4238 34.0494 31.4238 34.0494Z" fill="white"/>
<path d="M27.6802 25.0118C27.6802 25.0118 27.3714 29.0131 31.2172 29.8173C35.0634 30.6214 31.4229 34.0489 31.4229 34.0489C31.4229 34.0489 36.206 34.6573 37.9485 29.6814C39.691 24.7058 39.1516 22.2646 38.7297 22.1198C38.3079 21.9749 29.5968 18.3398 29.5968 18.3398L17.8211 20.2136L12.0511 23.211C12.0511 23.211 26.9256 22.0379 27.6802 25.0118Z" fill="white"/>
<path d="M25 47.7281C25 47.7281 28.9769 49.9025 30.8171 44.9994L30.1497 47.783C30.1497 47.783 35.5214 47.9914 36.4379 39.7642C36.4379 39.7642 39.4102 41.6758 42.0483 35.9416H41.2621L42.51 34.9138C42.51 34.9138 42.0515 33.1989 40.9058 32.8668C40.9058 32.8668 47.4264 31.5835 46.9779 22.01C46.8061 18.3417 42.8242 15.7605 39.6023 18.0811L37.948 29.6827L33.6876 40.4293L27.0079 45.5817L24.9995 47.729L25 47.7281Z" fill="white"/>
<path d="M45.2259 27.6524C44.0174 30.5053 41.721 32.6814 38.9359 31.5061C38.6131 31.3702 38.283 31.1893 37.948 30.9575L38.9364 19.81C38.9364 19.81 41.8381 16.503 45.0464 19.81C46.5529 21.3624 46.419 24.8368 45.2259 27.6524Z" fill="white"/>
<path d="M45.2259 27.6524C44.0174 30.5053 41.721 32.6814 38.9359 31.5061L38.9359 29.8177C38.9359 29.8177 42.4607 29.2012 43.648 27.5781C43.648 27.5781 43.6023 29.1967 42.9237 29.8177C42.9237 29.8177 44.115 29.4888 45.2259 27.6524Z" fill="white"/>
<path d="M38.4015 22.6183C38.4015 22.6183 40.8647 19.2943 43.8437 21.1226L43.0417 21.596C43.0417 21.596 44.1874 21.2756 44.531 23.0688C44.8746 24.862 43.156 26.6903 43.156 26.6903L44.3592 26.1764C44.3592 26.1764 41.0916 32.0591 37.948 29.6827L38.4015 22.6183Z" fill="white"/>
<path d="M25 38.8062V47.7281C25 47.7281 28.934 48.6218 31.1693 43.1693C31.1693 43.1693 31.4916 44.0612 30.808 46.1428C30.808 46.1428 34.2935 45.1511 34.43 39.9964C34.43 39.9964 34.9762 42.0763 33.9526 44.2578C34.0109 44.1966 36.262 41.8355 35.3175 38.4107C35.3175 38.4107 38.2559 40.7902 40.3054 36.4289C40.3054 36.4289 39.0069 37.4189 38.2559 37.1228L40.3054 35.3377C40.3054 35.3377 39.4857 32.7602 37.778 32.7602C37.778 32.7602 39.4179 32.5622 40.3054 33.356C40.3054 33.356 40.3741 30.7784 38.7343 29.4892C38.7343 29.4892 41.4674 26.7542 40.989 23.0661L39.6905 24.7067C39.6905 24.7067 39.7592 21.4637 41.5361 20.3711C41.5361 20.3711 41.0577 18.7498 39.9636 19.3123C39.9636 19.3123 40.0328 17.6919 37.4362 15.5121C37.4371 15.5135 37.4366 15.5157 37.4366 15.5171C37.4642 15.7106 38.4897 23.0152 35.5902 25.8371H36.6124C36.6124 25.8371 35.1118 27.7059 33.4041 27.1101C33.4041 27.1101 33.3024 28.5978 34.7885 29.4897H33.4028C33.4028 29.4897 34.9753 30.4814 34.4291 32.0672C33.882 33.653 31.422 34.0503 31.422 34.0503L33.6089 35.7359L31.696 35.3386C31.696 35.3386 32.7892 36.4298 31.9691 37.7181C31.1489 39.0074 30.1493 37.3222 30.1493 37.3222C30.1493 37.3222 30.1235 39.7998 28.962 40.4937V37.818C28.962 37.818 27.8687 39.6018 27.8687 41.0895L27.5486 39.4038C27.5486 39.4038 26.7072 40.6917 26.7072 42.0794L24.9995 38.8085L25 38.8062Z" fill="white"/>
<path d="M22.6969 25.0118L15.6229 22.1202C15.6229 22.1202 16.1112 26.2767 19.1599 26.5481C22.2086 26.819 22.6969 25.0118 22.6969 25.0118Z" fill="white"/>
<path d="M22.6969 25.0118C22.6969 25.0118 22.2506 28.0735 18.9117 28.6999C18.9117 28.6999 22.0503 27.2708 21.3825 25.0118H22.6969Z" fill="white"/>
<path d="M21.473 25.7363C21.473 25.7363 19.7128 28.7197 15.9733 25.7363C15.9733 25.7363 18.8927 29.2467 21.473 26.5755C21.473 26.5755 22.4319 25.7377 21.473 25.7363Z" fill="white"/>
<path d="M16.7971 23.4211L21.5873 25.3529C21.5873 25.3529 18.0472 27.5687 16.7971 23.4211Z" fill="white"/>
<path d="M27.6802 25.0118L34.7542 22.1202C34.7542 22.1202 34.2659 26.2767 31.2172 26.5481C28.1685 26.819 27.6802 25.0118 27.6802 25.0118Z" fill="white"/>
<path d="M27.6802 25.0118C27.6802 25.0118 28.1265 28.0735 31.4654 28.6999C31.4654 28.6999 28.3267 27.2708 28.9945 25.0118H27.6802Z" fill="white"/>
<path d="M28.9041 25.7363C28.9041 25.7363 30.6642 28.7197 34.4038 25.7363C34.4038 25.7363 31.4844 29.2467 28.9041 26.5755C28.9041 26.5755 27.9452 25.7377 28.9041 25.7363Z" fill="white"/>
<path d="M33.268 23.5206L28.4778 25.4524C28.4778 25.4524 32.0179 27.6681 33.268 23.5206Z" fill="white"/>
<path d="M39.6905 24.7067L40.989 23.0647C41.4244 26.4135 39.2099 28.9776 38.8007 29.4208C38.7582 29.4658 38.7352 29.4888 38.7352 29.4888C40.3741 30.7784 40.3058 33.3551 40.3058 33.3551C39.4188 32.5626 37.778 32.7602 37.778 32.7602C39.4857 32.7602 40.3058 35.3368 40.3058 35.3368L38.2559 37.1228C39.0078 37.4194 40.3054 36.4289 40.3054 36.4289C38.2555 40.7893 35.3184 38.4107 35.3184 38.4107C36.262 41.8351 34.0109 44.1966 33.9535 44.2569C33.9535 44.2569 33.9548 44.2556 33.9566 44.2506C34.9748 42.0713 34.43 39.9964 34.43 39.9964C34.2944 45.1506 30.808 46.1428 30.808 46.1428C31.493 44.0607 31.1702 43.1693 31.1702 43.1693C28.9344 48.6218 25.0005 47.7272 25.0005 47.7272L25 43.9203L25.4404 41.6753C25.4404 41.6753 26.5101 44.1683 27.5495 44.3352V42.0074C27.5495 42.0074 28.7047 42.2563 28.7626 43.6692C28.7626 43.6692 30.6317 43.0375 30.3912 40.1782C30.3912 40.1782 32.0288 40.2615 32.0853 42.2558C32.0853 42.2558 33.8187 40.3528 33.0031 37.1044H34.7899C34.7899 37.1044 34.5372 34.8108 33.2694 34.3612C33.2694 34.3612 34.3197 33.6957 35.866 34.3612C35.866 34.3612 36.7245 31.7554 35.0639 30.6218C35.0639 30.6218 35.8049 29.8758 36.6056 30.2447C36.5084 30.1921 34.9269 29.3335 34.4309 28.0452C34.4309 28.0452 37.8354 28.6369 38.3866 24.2221C38.3866 24.2221 37.5189 25.1891 36.8982 25.0856C36.8982 25.0856 39.8673 21.8421 37.4385 15.5153V15.5108C40.035 17.6919 39.9663 19.3105 39.9663 19.3105C41.0591 18.7484 41.5383 20.3702 41.5383 20.3702C39.7606 21.4623 39.6923 24.7058 39.6923 24.7058L39.6905 24.7067Z" fill="white"/>
<path d="M21.1881 46.5901L23.2584 48.7154V48.1993L24.8824 49.6208L26.5716 48.2083L26.4016 48.9449L29.1306 46.3093L24.9231 45.9138L21.1881 46.5901Z" fill="white"/>
<path d="M21.8993 36.6314H28.2562L26.6706 37.8099L26.7836 37.2209L25.6027 37.9823L25.7406 37.3069L25.0778 38.241L24.0655 37.2637L24.2594 38.0111L21.8993 36.6314Z" fill="white"/>
<path d="M20.3598 35.2194C20.3598 35.2194 26.1091 36.1922 29.486 35.2194L28.9122 35.9402C28.9122 35.9402 20.7957 36.3007 20.3598 35.2194Z" fill="white"/>
<path d="M22.6969 29.3614L24.8824 32.7026V35.6378L25.3255 35.641V32.7665L28.2562 29.3614L25.6027 30.6115L24.8445 30.4531L22.6969 29.3614Z" fill="white"/>
<path d="M22.6969 29.3614L25.1596 30.2474L28.2562 29.3614L25.1596 31.2577L22.6969 29.3614Z" fill="white"/>
<path d="M23.3009 28.9303L25.1596 29.7048L27.6802 28.9303L26.0191 25.4105L25.6027 26.8563L25.4765 25.4105L24.8824 26.6574V25.6288L23.3009 28.9303Z" fill="white"/>
<path d="M21.0977 35.0673C21.4291 35.1321 21.77 35.1852 22.1064 35.1955C22.3858 35.2041 22.6598 35.1811 22.9365 35.209C23.3335 35.1883 23.7567 35.1888 24.2011 35.2189V32.5032L22.12 29.3268C22.12 29.3268 19.6676 31.1249 19.6143 34.26L21.61 33.5751L21.0977 35.0673Z" fill="white"/>
<path d="M20.929 35.0412C20.9545 35.0461 20.98 35.0511 21.0055 35.0561L20.929 35.0412Z" fill="white"/>
<path d="M21.3138 32.6859L19.2435 31.9209C19.3177 32.262 19.3868 32.6049 19.4859 32.9384" fill="white"/>
<path d="M7.79748 18.6134L7.95482 20.1367C7.95482 20.1367 6.18746 20.5677 5.64129 20.97L6.00118 21.429C6.00118 21.429 5.03861 21.6311 5.12361 23.4126C5.12361 23.4126 3.64786 19.562 7.79748 18.6134Z" fill="white"/>
<path d="M42.4982 18.5846L42.2152 20.0503C42.2152 20.0503 43.936 20.2514 44.5762 21.056L44.0838 21.429C44.0838 21.429 45.1314 22.1409 45.1034 23.553C45.0749 24.9646 44.5762 25.7368 44.5762 25.7368C44.5762 25.7368 46.179 24.4475 45.6409 21.6599C45.1029 18.8722 42.4982 18.5846 42.4982 18.5846Z" fill="white"/>
<path d="M15.57 39.9964C15.57 39.9964 15.0238 42.0758 16.0465 44.2569C15.9887 44.1966 13.7375 41.8351 14.6825 38.4107C14.6825 38.4107 11.7445 40.7893 9.69461 36.4289C12.609 39.8317 15.0347 37.6799 15.0347 37.6799C14.3696 39.946 15.1048 41.7761 15.1048 41.7761C14.7684 40.1049 15.7409 38.8877 15.7409 38.8877C15.3602 42.9947 18.587 45.0799 18.587 45.0799C18.2977 43.5941 18.8045 43.19 18.8289 43.1729C18.8122 43.2256 18.5305 44.1242 19.1929 46.1433C19.1929 46.1433 15.7079 45.1515 15.5709 39.9973L15.57 39.9964Z" fill="white"/>
<path d="M18.8289 43.1729C18.8289 43.1729 20.8183 46.3876 22.6969 47.2066L23.0039 46.6032C23.0039 46.6032 24.0243 48.269 24.8824 48.9449L26.9541 47.2066V48.0688C26.9541 48.0688 29.2477 46.2823 31.1702 43.1693C31.1702 43.1693 30.5214 46.2864 26.4016 48.9449L26.402 48.4243L24.8829 49.8575L23.2593 48.1993L23.3656 49.0385C23.3656 49.0385 19.1386 45.664 18.8289 43.1729Z" fill="white"/>
<path d="M11.7423 37.1224C11.8761 37.2272 11.9616 37.2925 11.9616 37.2925C11.8445 37.2646 11.7256 37.22 11.6071 37.1611C10.6346 36.6868 9.69415 35.3368 9.69415 35.3368C9.69415 35.3368 10.5143 32.7602 12.222 32.7602C12.222 32.7602 10.5812 32.5626 9.69415 33.3551C9.69415 33.3551 9.62543 30.7789 11.2657 29.4892C11.2657 29.4892 9.51285 27.7343 9.06118 25.1405C9.47668 27.3059 11.7703 29.5765 11.7703 29.5765C10.2833 30.4814 10.4112 32.5005 10.4112 32.5005C11.4308 31.9983 12.8541 32.703 12.8541 32.703C11.1966 32.8979 10.1784 34.7496 10.1571 35.3368C10.1481 35.5839 10.4677 35.9717 10.8403 36.3344C11.1599 36.6463 11.5162 36.9415 11.7414 37.1206L11.7423 37.1224Z" fill="white"/>
<path d="M38.8007 29.4208C38.7582 29.4658 38.7352 29.4888 38.7352 29.4888C38.321 29.041 38.434 29.1058 38.8007 29.4208Z" fill="white"/>
<path d="M37.778 32.7602C39.4857 32.7602 40.3058 35.3368 40.3058 35.3368L38.2559 37.1228C39.0078 37.4194 40.3054 36.4289 40.3054 36.4289C38.2555 40.7893 35.3184 38.4107 35.3184 38.4107C36.262 41.8351 34.0109 44.1966 33.9535 44.2569C33.9535 44.2569 33.9548 44.2556 33.9566 44.2506C34.0538 44.0963 36.0278 40.8847 34.8744 37.436C34.8744 37.436 37.6293 40.0806 39.6105 37.2646C39.6105 37.2646 38.6488 37.6956 37.7979 37.2646C37.7979 37.2646 38.959 35.7413 39.8664 35.3107C39.8664 35.3107 39.0733 32.9289 37.1758 32.8268C37.1758 32.8268 38.4494 31.8211 39.8664 32.703C39.8664 32.703 40.1521 31.0241 38.7352 29.4888C40.3741 30.7784 40.3058 33.3551 40.3058 33.3551C39.4188 32.5626 37.778 32.7602 37.778 32.7602Z" fill="white"/>
<path d="M24.7265 17.8417L9.79769 18.4469L9.55761 18.1608C9.07293 17.5825 9.22982 14.7453 9.2366 14.6247C9.32748 13.0408 9.65798 10.6648 10.7164 8.33976C13.478 2.27347 19.074 1 23.2819 1C23.7503 1 24.2364 1.0153 24.7265 1.045C25.2166 1.01485 25.7022 1 26.171 1C30.3785 1 35.9736 2.27347 38.7356 8.34066C39.794 10.6657 40.1245 13.0417 40.2159 14.6252C40.2226 14.7458 40.38 17.583 39.8953 18.1608L39.6552 18.4469L24.7265 17.8417Z" fill="white"/>
<path d="M24.6604 1.91618C8.25594 0.881653 9.77554 17.4048 10.0712 17.7576L24.6604 17.1658L39.2497 17.7576C39.5454 17.4048 41.065 0.881653 24.6604 1.91618Z" fill="white"/>
<path d="M10.4185 17.6095C10.4185 17.6095 10.3421 3.0614 24.7305 3.40609V13.8494L10.4185 17.6095Z" fill="white"/>
<path d="M38.9725 17.6095C38.9725 17.6095 39.0489 3.0614 24.6604 3.40609V13.8494L38.9725 17.6095Z" fill="white"/>
<path d="M42.3689 25.5293C36.6581 22.8708 30.737 21.5042 24.769 21.4677C18.8063 21.5042 12.8848 22.8708 7.17445 25.5293L6.0473 26.054L10.0473 17.322L10.1232 17.2563C10.2982 17.1051 14.526 13.552 24.7644 13.3859C35.0173 13.5524 39.2452 17.1051 39.4201 17.2563L39.4961 17.322L43.496 26.054L42.3689 25.5293Z" fill="white"/>
<path d="M39.0132 17.5506C39.0132 17.5506 34.8527 13.9561 24.6605 13.7905C14.4682 13.9561 10.3077 17.5506 10.3077 17.5506L6.87243 25.0492C13.3808 22.019 19.4461 20.9772 24.66 20.9453C29.8744 20.9772 35.9392 22.019 42.4476 25.0492L39.0123 17.5506H39.0132Z" fill="white"/>
<path d="M11.868 17.6226C11.868 17.6226 10.1128 19.6957 8.85862 23.4909C8.85862 23.4909 18.5115 17.8147 34.2514 20.9988C34.2514 20.9988 33.2477 19.0103 28.3258 18.4069C28.3258 18.4069 30.794 17.8782 35.2113 19.4788C35.2113 19.4788 34.3617 17.3724 26.3772 17.1136C26.3772 17.1136 28.3882 16.0791 33.1166 17.1136C33.1166 17.1136 23.9465 12.355 11.868 17.6226Z" fill="white"/>
<path d="M12.7862 17.9758C12.7862 17.9758 12.1998 18.0357 10.6486 22.2062C10.6486 22.2062 13.9446 19.6223 22.5531 19.3163C22.5531 19.3163 20.6863 18.3493 17.2885 18.766C17.2885 18.766 19.0722 18.0622 23.1494 17.9758C23.1494 17.9758 18.7322 15.8204 12.7862 17.9758Z" fill="white"/>
<path d="M10.3077 17.5812L6.87243 25.0798C6.87243 25.0798 10.9221 23.2389 15.9398 21.9726C15.9398 21.9726 11.2314 22.5598 7.49365 24.4993L10.3077 17.5812Z" fill="white"/>
<path d="M11.8996 15.1418C11.8996 15.1418 14.3529 5.38919 22.0449 4.69935C29.7369 4.00952 33.1161 7.88932 33.1161 7.88932C33.1161 7.88932 30.1995 6.25136 24.3381 7.19949C24.3381 7.19949 32.4723 7.02714 32.5247 9.44088C32.5776 11.8546 26.4617 11.1652 26.4617 11.1652L33.8011 12.9755C33.8011 12.9755 20.5267 11.1868 11.8996 15.1418Z" fill="white"/>
<path d="M9.94825 17.2711C9.94825 17.2711 8.74514 4.49281 18.3533 2.57991C18.3533 2.57991 10.4008 4.23766 10.5564 16.7392L9.94825 17.2711Z" fill="white"/>
<path d="M43.8993 18.905C43.8993 18.905 47.7293 20.1619 46.0257 26.3636C46.0257 26.3636 46.958 20.6199 43.8993 18.905Z" fill="white"/>
<path d="M19.9542 9.33524C19.8433 9.27906 19.7735 9.16575 19.7735 9.04197C19.7735 8.91818 19.8433 8.80487 19.9542 8.74869L22.6198 7.39764C22.8108 7.30085 23.0371 7.43891 23.0371 7.65218C23.0371 7.76189 22.974 7.86191 22.8747 7.90953L20.5504 9.02388C20.5449 9.02648 20.5393 9.02076 20.542 9.01539C20.545 9.00945 20.554 9.01156 20.554 9.01821V9.06573C20.554 9.07237 20.545 9.07448 20.542 9.06854C20.5393 9.06317 20.5449 9.05745 20.5504 9.06005L22.8747 10.1744C22.974 10.222 23.0371 10.322 23.0371 10.4317C23.0371 10.645 22.8108 10.7831 22.6198 10.6863L19.9542 9.33524Z" fill="white"/>
<path d="M25.7944 5.65305C25.9683 5.65305 26.0948 5.81728 26.0496 5.98436L24.5195 11.6412C24.4884 11.756 24.3838 11.8358 24.2643 11.8358C24.0904 11.8358 23.964 11.6716 24.0091 11.5045L25.5392 5.84766C25.5703 5.73284 25.6749 5.65305 25.7944 5.65305Z" fill="white"/>
<path d="M30.2839 9.04197C30.2839 9.16575 30.2141 9.27906 30.1033 9.33524L27.4376 10.6863C27.2467 10.7831 27.0203 10.645 27.0203 10.4317C27.0203 10.322 27.0835 10.222 27.1828 10.1744L29.5071 9.06005C29.5125 9.05745 29.5182 9.06317 29.5155 9.06854C29.5125 9.07448 29.5035 9.07237 29.5035 9.06573V9.0182C29.5035 9.01156 29.5125 9.00945 29.5155 9.01539C29.5182 9.02076 29.5125 9.02648 29.5071 9.02388L27.1828 7.90953C27.0835 7.86191 27.0203 7.76189 27.0203 7.65218C27.0203 7.43891 27.2467 7.30085 27.4376 7.39764L30.1033 8.74869C30.2141 8.80487 30.2839 8.91818 30.2839 9.04197Z" fill="white"/>
<path d="M12.5638 15.5121L17.3229 9.01564L25 9.34773M12.5638 15.5121L11.0636 19.81L12.222 32.7602M12.5638 15.5121C9.96724 17.6919 10.0364 19.3123 10.0364 19.3123C8.94227 18.7498 8.46392 20.3711 8.46392 20.3711C10.2408 21.4637 10.3095 24.7067 10.3095 24.7067L9.01099 23.0661C8.53264 26.7542 11.2657 29.4892 11.2657 29.4892M12.5638 15.5121C12.5629 15.5135 12.5634 15.5157 12.5634 15.5171C12.5358 15.7106 11.5103 23.0152 14.4098 25.8371H13.3876C13.3876 25.8371 14.8882 27.7059 16.5959 27.1101C16.5959 27.1101 16.6976 28.5978 15.2115 29.4897H16.5972C16.5972 29.4897 15.0247 30.4814 15.5709 32.0672C16.118 33.653 18.578 34.0503 18.578 34.0503L16.3911 35.7359L18.304 35.3386C18.304 35.3386 17.2108 36.4298 18.0309 37.7181C18.8511 39.0074 19.8507 37.3222 19.8507 37.3222C19.8507 37.3222 19.8765 39.7998 21.038 40.4937V37.818C21.038 37.818 22.1313 39.6018 22.1313 41.0895L22.4514 39.4038C22.4514 39.4038 23.2928 40.6917 23.2928 42.0794L25.0005 38.8085L25 38.8062M25 9.34773V41.6758M25 9.34773L32.6771 9.01564L37.4362 15.5121M25 41.6758L19.5944 42.5893L12.222 32.7602M25 41.6758L30.4056 42.5893L37.778 32.7602M12.222 32.7602C10.5143 32.7602 9.69461 35.3377 9.69461 35.3377M12.222 32.7602C12.222 32.7602 10.5821 32.5622 9.69461 33.356M12.222 32.7602C10.5143 32.7602 9.69415 35.3368 9.69415 35.3368C9.69415 35.3368 10.6346 36.6868 11.6071 37.1611C11.7256 37.22 11.8445 37.2646 11.9616 37.2925C11.9616 37.2925 11.8761 37.2272 11.7423 37.1224L11.7414 37.1206C11.5162 36.9415 11.1599 36.6463 10.8403 36.3344C10.4677 35.9717 10.1481 35.5839 10.1571 35.3368C10.1784 34.7496 11.1966 32.8979 12.8541 32.703C12.8541 32.703 11.4308 31.9983 10.4112 32.5005C10.4112 32.5005 10.2833 30.4814 11.7703 29.5765C11.7703 29.5765 9.47668 27.3059 9.06118 25.1405C9.51285 27.7343 11.2657 29.4892 11.2657 29.4892M12.222 32.7602C12.222 32.7602 10.5812 32.5626 9.69415 33.3551C9.69415 33.3551 9.62543 30.7789 11.2657 29.4892M37.4362 15.5121L38.9364 19.81M37.4362 15.5121C40.0328 17.6919 39.9636 19.3123 39.9636 19.3123C41.0577 18.7498 41.5361 20.3711 41.5361 20.3711C39.7592 21.4637 39.6905 24.7067 39.6905 24.7067M37.4362 15.5121C37.4371 15.5135 37.4366 15.5157 37.4366 15.5171C37.4642 15.7106 38.4897 23.0152 35.5902 25.8371H36.6124C36.6124 25.8371 35.1118 27.7059 33.4041 27.1101C33.4041 27.1101 33.3024 28.5978 34.7885 29.4897H33.4028C33.4028 29.4897 34.9753 30.4814 34.4291 32.0672C33.882 33.653 31.422 34.0503 31.422 34.0503L33.6089 35.7359L31.696 35.3386C31.696 35.3386 32.7892 36.4298 31.9691 37.7181C31.1489 39.0074 30.1493 37.3222 30.1493 37.3222C30.1493 37.3222 30.1235 39.7998 28.962 40.4937V37.818C28.962 37.818 27.8687 39.6018 27.8687 41.0895L27.5486 39.4038C27.5486 39.4038 26.7072 40.6917 26.7072 42.0794L24.9995 38.8085L25 38.8062M37.778 32.7602L38.9364 19.81M37.778 32.7602C39.4857 32.7602 40.3054 35.3377 40.3054 35.3377L38.2559 37.1228M37.778 32.7602C37.778 32.7602 39.4179 32.5622 40.3054 33.356C40.3054 33.356 40.3741 30.7784 38.7343 29.4892C38.7343 29.4892 41.4674 26.7542 40.989 23.0661L39.6905 24.7067M37.778 32.7602C37.778 32.7602 39.4188 32.5626 40.3058 33.3551C40.3058 33.3551 40.3741 30.7784 38.7352 29.4888M37.778 32.7602C39.4857 32.7602 40.3058 35.3368 40.3058 35.3368L38.2559 37.1228M38.9364 19.81L37.948 30.9575C38.283 31.1893 38.6131 31.3702 38.9359 31.5061M38.9364 19.81C38.9364 19.81 41.8381 16.503 45.0464 19.81C46.5529 21.3624 46.419 24.8368 45.2259 27.6524M25 38.8062L23.4994 40.4248C23.361 39.4344 22.3953 38.6433 22.3953 38.6433L22.1869 39.3044C22.1489 38.7869 20.9512 37.4365 20.9512 37.4365L20.5832 39.1896C20.2436 38.9597 19.9886 36.6319 19.9886 36.6319C19.9886 36.6319 19.2806 37.3501 18.601 37.4365C17.9215 37.5224 18.7991 35.0799 18.7991 35.0799H17.8388L18.5771 34.0494C18.5771 34.0494 15.8544 35.798 15.6224 35.9479C15.3905 36.0977 17.3265 37.8099 17.383 37.9247C17.44 38.0394 20.3598 40.5396 20.3598 40.5396L23.1594 43.0685L25.0778 42.5888L25 38.8062ZM25 38.8062V47.7281M25 38.8062L24.9995 47.729M22.6969 25.0118C22.6969 25.0118 22.6684 29.3898 18.0318 29.8173L19.1599 29.4042C19.1599 29.4042 18.0942 29.6629 17.109 28.8867L18.587 28.3449C18.587 28.3449 17.468 27.4152 16.732 28.3449C15.9963 29.2746 14.8918 29.8173 14.8918 29.8173L12.9807 25.6283C12.9807 25.6283 14.5699 26.7213 15.6229 26.5755C15.6229 26.5755 14.7218 26.292 14.9343 24.9385C14.9343 24.9385 15.981 25.6891 16.732 25.7363C16.732 25.7363 16.3246 24.9853 15.9737 23.5525L22.6969 25.0118ZM22.6969 25.0118L15.6229 22.1202C15.6229 22.1202 16.1112 26.2767 19.1599 26.5481C22.2086 26.819 22.6969 25.0118 22.6969 25.0118ZM22.6969 25.0118C22.6969 25.0118 22.2506 28.0735 18.9117 28.6999C18.9117 28.6999 22.0503 27.2708 21.3825 25.0118H22.6969ZM25 47.7281C25 47.7281 21.0231 49.902 19.1829 44.999L19.8503 47.7826C19.8503 47.7826 14.4786 47.9909 13.5621 39.7638C13.5621 39.7638 10.5898 41.6753 7.95166 35.9411H8.73791L7.49004 34.9134C7.49004 34.9134 7.94849 33.1985 9.09418 32.8664C9.09418 32.8664 2.57361 31.583 3.02212 22.0095C3.19393 18.3412 7.17581 15.7601 10.3977 18.0807L12.052 29.6823M25 47.7281L22.9921 45.5812L16.3124 40.4289L12.052 29.6823M25 47.7281C25 47.7281 21.066 48.6218 18.8307 43.1693M25 47.7281L25 43.9203M25 47.7281C25 47.7281 28.9769 49.9025 30.8171 44.9994L30.1497 47.783C30.1497 47.783 35.5214 47.9914 36.4379 39.7642C36.4379 39.7642 39.4102 41.6758 42.0483 35.9416H41.2621L42.51 34.9138C42.51 34.9138 42.0515 33.1989 40.9058 32.8668C40.9058 32.8668 47.4264 31.5835 46.9779 22.01C46.8061 18.3417 42.8242 15.7605 39.6023 18.0811L37.948 29.6827M25 47.7281L24.9995 47.729M25 47.7281C25 47.7281 28.934 48.6218 31.1693 43.1693C31.1693 43.1693 31.4916 44.0612 30.808 46.1428M12.052 29.6823C12.052 29.6823 11.9552 30.6196 11.8716 31.2095M12.052 29.6823C12.052 29.6823 5.94738 27.3446 5.64129 26.1755C5.64129 26.1755 5.75975 28.1109 7.50089 29.6202L6.01068 28.9591M12.052 29.6823C8.90836 32.0586 5.64084 26.1764 5.64084 26.1764L6.84395 26.6903C6.84395 26.6903 5.12541 24.862 5.46903 23.0688C5.81265 21.2756 6.95834 21.596 6.95834 21.596L6.15626 21.1226C9.13533 19.2943 11.5985 22.6183 11.5985 22.6183L12.052 29.6823ZM11.8716 31.2095C12.0909 31.0979 12.3115 30.9652 12.5353 30.8108L11.5461 19.6619C11.5461 19.6619 8.64522 16.355 5.43693 19.6619C3.65781 21.497 4.166 26.0135 6.01068 28.9591M11.8716 31.2095C9.44729 32.4438 7.36661 31.1276 6.01068 28.9591M18.8307 43.1693C18.8307 43.1693 18.5084 44.0612 19.192 46.1428C19.192 46.1428 15.7065 45.1511 15.57 39.9964M18.8307 43.1693L18.8289 43.1729M18.8307 43.1693C21.066 48.6218 24.9995 47.729 24.9995 47.729M15.57 39.9964C15.57 39.9964 15.0238 42.0763 16.0474 44.2578M15.57 39.9964C15.57 39.9964 15.0238 42.0758 16.0465 44.2569C15.9887 44.1966 13.7375 41.8351 14.6825 38.4107M15.57 39.9964L15.5709 39.9973M16.0474 44.2578C15.9891 44.1966 13.738 41.8355 14.6825 38.4107M16.0474 44.2578C15.0247 42.0767 15.5709 39.9973 15.5709 39.9973M16.0474 44.2578C15.9896 44.1975 13.7389 41.8355 14.6838 38.4111C14.6838 38.4111 11.7445 40.7893 9.69461 36.4289M14.6825 38.4107C14.6825 38.4107 11.7441 40.7902 9.69461 36.4289M14.6825 38.4107C14.6825 38.4107 11.7445 40.7893 9.69461 36.4289M9.69461 36.4289C9.69461 36.4289 10.9931 37.4189 11.7441 37.1228M9.69461 36.4289C9.69461 36.4289 10.8471 37.3082 11.608 37.1615C11.655 37.1539 11.7011 37.1399 11.7441 37.1228M9.69461 36.4289C12.609 39.8317 15.0347 37.6799 15.0347 37.6799C14.3696 39.946 15.1048 41.7761 15.1048 41.7761C14.7684 40.1049 15.7409 38.8877 15.7409 38.8877C15.3602 42.9947 18.587 45.08 18.587 45.08C18.2977 43.5941 18.8045 43.19 18.8289 43.1729M11.7441 37.1228L9.69461 35.3377M11.7441 37.1228L11.7423 37.1215L10.8412 36.3353L9.69461 35.3377M9.69461 35.3377C9.69461 35.3377 10.5152 32.7611 12.2229 32.7611C12.2229 32.7611 10.5817 32.5635 9.69461 33.356M9.69461 33.356C9.69461 33.356 9.62588 30.7784 11.2657 29.4892M9.69461 33.356C9.69461 33.356 9.62679 30.7793 11.2671 29.4897C11.2671 29.4897 9.51376 27.7352 9.06208 25.1414C9.06072 25.1383 9.05892 25.1338 9.05892 25.1306C9.05756 25.1212 9.05575 25.1122 9.05439 25.1045C8.94769 24.4696 8.91876 23.7856 9.01189 23.0656L10.31 24.7076C10.31 24.7076 10.2417 21.4641 8.46392 20.372C8.46392 20.372 8.94317 18.7502 10.0378 19.3123C10.0378 19.3123 9.96769 17.6937 12.5656 15.5126C12.5643 15.5139 12.5643 15.5157 12.5643 15.5171C10.1354 21.8439 13.1045 25.0874 13.1045 25.0874C12.4838 25.1909 11.6161 24.2239 11.6161 24.2239C12.1668 28.6383 15.5718 28.047 15.5718 28.047C15.0758 29.3353 13.4943 30.1939 13.3971 30.2465C14.1978 29.8775 14.9388 30.6236 14.9388 30.6236C13.2786 31.7576 14.1368 34.363 14.1368 34.363C15.683 33.6975 16.7333 34.363 16.7333 34.363C15.4656 34.8126 15.2128 37.1062 15.2128 37.1062H17.001C16.1835 40.3546 17.9188 42.2576 17.9188 42.2576C17.9753 40.2637 19.6111 40.18 19.6111 40.18C19.3706 43.0393 21.2397 43.671 21.2397 43.671C21.2975 42.2576 22.4527 42.0092 22.4527 42.0092V44.337C23.4922 44.1701 24.5619 41.6771 24.5619 41.6771L25.0018 43.9217L25 43.9203M25 43.9203L25.0005 47.7272C25.0005 47.7272 28.9344 48.6218 31.1702 43.1693M25 43.9203L25.4404 41.6753C25.4404 41.6753 26.5101 44.1683 27.5495 44.3352V42.0074C27.5495 42.0074 28.7047 42.2563 28.7626 43.6692C28.7626 43.6692 30.6317 43.0375 30.3912 40.1782C30.3912 40.1782 32.0288 40.2615 32.0853 42.2558C32.0853 42.2558 33.8187 40.3528 33.0031 37.1044H34.7899C34.7899 37.1044 34.5372 34.8108 33.2694 34.3612C33.2694 34.3612 34.3197 33.6957 35.866 34.3612C35.866 34.3612 36.7245 31.7554 35.0639 30.6218C35.0639 30.6218 35.8049 29.8758 36.6056 30.2447C36.5084 30.1921 34.9269 29.3335 34.4309 28.0452C34.4309 28.0452 37.8354 28.6369 38.3866 24.2221C38.3866 24.2221 37.5189 25.1891 36.8982 25.0856C36.8982 25.0856 39.8673 21.8421 37.4385 15.5153V15.5108C40.035 17.6919 39.9663 19.3105 39.9663 19.3105C41.0591 18.7484 41.5383 20.3702 41.5383 20.3702C39.7606 21.4623 39.6923 24.7058 39.6923 24.7058L39.6905 24.7067M18.8289 43.1729C18.8122 43.2256 18.5305 44.1242 19.1929 46.1433C19.1929 46.1433 15.7079 45.1515 15.5709 39.9973M18.8289 43.1729C18.8289 43.1729 20.8183 46.3876 22.6969 47.2066L23.0039 46.6032C23.0039 46.6032 24.0243 48.269 24.8824 48.9449L26.9541 47.2066V48.0688C26.9541 48.0688 29.2477 46.2823 31.1702 43.1693M18.8289 43.1729C19.1386 45.664 23.3656 49.0385 23.3656 49.0385L23.2593 48.1993L24.8829 49.8575L26.402 48.4243L26.4016 48.9449M27.6802 25.0118C27.6802 25.0118 27.3714 29.0131 31.2172 29.8173C35.0634 30.6214 31.4229 34.0489 31.4229 34.0489C31.4229 34.0489 36.206 34.6573 37.9485 29.6814C39.691 24.7058 39.1516 22.2646 38.7297 22.1198C38.3079 21.9749 29.5968 18.3398 29.5968 18.3398L17.8211 20.2136L12.0511 23.211C12.0511 23.211 26.9256 22.0379 27.6802 25.0118ZM27.6802 25.0118L34.7542 22.1202C34.7542 22.1202 34.2659 26.2767 31.2172 26.5481C28.1685 26.819 27.6802 25.0118 27.6802 25.0118ZM27.6802 25.0118C27.6802 25.0118 28.1265 28.0735 31.4654 28.6999C31.4654 28.6999 28.3267 27.2708 28.9945 25.0118H27.6802ZM37.948 29.6827L33.6876 40.4293L27.0079 45.5817L24.9995 47.729M37.948 29.6827C41.0916 32.0591 44.3592 26.1764 44.3592 26.1764L43.156 26.6903C43.156 26.6903 44.8746 24.862 44.531 23.0688C44.1874 21.2756 43.0417 21.596 43.0417 21.596L43.8437 21.1226C40.8647 19.2943 38.4015 22.6183 38.4015 22.6183L37.948 29.6827ZM45.2259 27.6524C44.0174 30.5053 41.721 32.6814 38.9359 31.5061M45.2259 27.6524C44.115 29.4888 42.9237 29.8177 42.9237 29.8177C43.6023 29.1967 43.648 27.5781 43.648 27.5781C42.4607 29.2012 38.9359 29.8177 38.9359 29.8177L38.9359 31.5061M30.808 46.1428C30.808 46.1428 34.2935 45.1511 34.43 39.9964M30.808 46.1428C30.808 46.1428 34.2944 45.1506 34.43 39.9964M30.808 46.1428C31.493 44.0607 31.1702 43.1693 31.1702 43.1693M34.43 39.9964C34.43 39.9964 34.9762 42.0763 33.9526 44.2578C34.0109 44.1966 36.262 41.8355 35.3175 38.4107C35.3175 38.4107 38.2559 40.7902 40.3054 36.4289M34.43 39.9964C34.43 39.9964 34.9748 42.0713 33.9566 44.2506M40.3054 36.4289C40.3054 36.4289 39.0069 37.4189 38.2559 37.1228M40.3054 36.4289C40.3054 36.4289 39.0078 37.4194 38.2559 37.1228M40.3054 36.4289C38.2555 40.7893 35.3184 38.4107 35.3184 38.4107C36.262 41.8351 34.0109 44.1966 33.9535 44.2569C33.9535 44.2569 33.9548 44.2556 33.9566 44.2506M39.6905 24.7067L40.989 23.0647C41.4244 26.4135 39.2099 28.9776 38.8007 29.4208M38.8007 29.4208C38.7582 29.4658 38.7352 29.4888 38.7352 29.4888M38.8007 29.4208C38.434 29.1058 38.321 29.041 38.7352 29.4888M38.7352 29.4888C40.1521 31.0241 39.8664 32.703 39.8664 32.703C38.4494 31.8211 37.1758 32.8268 37.1758 32.8268C39.0733 32.9289 39.8664 35.3107 39.8664 35.3107C38.959 35.7413 37.7979 37.2646 37.7979 37.2646C38.6488 37.6956 39.6105 37.2646 39.6105 37.2646C37.6293 40.0806 34.8744 37.436 34.8744 37.436C36.0278 40.8847 34.0538 44.0963 33.9566 44.2506M31.1702 43.1693C31.1702 43.1693 30.5214 46.2864 26.4016 48.9449M26.4016 48.9449L26.5716 48.2083L24.8824 49.6208L23.2584 48.1993V48.7154L21.1881 46.5901L24.9231 45.9138L29.1306 46.3093L26.4016 48.9449ZM22.6969 29.3614L24.8824 32.7026V35.6378L25.3255 35.641V32.7665L28.2562 29.3614M22.6969 29.3614L24.8445 30.4531L25.6027 30.6115L28.2562 29.3614M22.6969 29.3614L25.1596 30.2474L28.2562 29.3614M22.6969 29.3614L25.1596 31.2577L28.2562 29.3614M20.929 35.0412C20.9545 35.0461 20.98 35.0511 21.0055 35.0561M21.3138 32.6859L19.2435 31.9209C19.3177 32.262 19.3868 32.6049 19.4859 32.9384M20.4028 47.0716C20.7419 47.392 24.2594 50.483 24.2594 50.483V49.5632L25 51L25.7406 49.6208V50.5977C25.7406 50.5977 28.6066 48.1489 29.3237 47.3353C30.0408 46.5217 20.4028 47.0716 20.4028 47.0716ZM9.82934 32.0667C9.82934 32.0667 5.03815 31.9772 4.18861 25.4105C3.33906 18.8438 6.91674 17.2774 9.6937 18.3407C12.4707 19.4041 6.19831 24.9389 6.19831 24.9389L10.4031 31.2581L9.82934 32.0667ZM31.4238 34.0494L32.1621 35.0799H31.2018C31.2018 35.0799 32.0794 37.5224 31.3999 37.4365C30.7203 37.3501 30.0123 36.6319 30.0123 36.6319C30.0123 36.6319 29.7573 38.9597 29.4177 39.1896L29.0497 37.4365C29.0497 37.4365 27.852 38.7869 27.814 39.3044L27.6056 38.6433C27.6056 38.6433 26.6399 39.4344 26.5015 40.4248L25.0009 38.8062L25.2125 42.5888L26.8415 43.0685L29.6411 40.5396C29.6411 40.5396 32.5609 38.0394 32.6179 37.9247C32.6744 37.8099 34.6104 36.0977 34.3785 35.9479C34.1465 35.798 31.4238 34.0494 31.4238 34.0494ZM21.473 25.7363C21.473 25.7363 19.7128 28.7197 15.9733 25.7363C15.9733 25.7363 18.8927 29.2467 21.473 26.5755C21.473 26.5755 22.4319 25.7377 21.473 25.7363ZM16.7971 23.4211L21.5873 25.3529C21.5873 25.3529 18.0472 27.5687 16.7971 23.4211ZM28.9041 25.7363C28.9041 25.7363 30.6642 28.7197 34.4038 25.7363C34.4038 25.7363 31.4844 29.2467 28.9041 26.5755C28.9041 26.5755 27.9452 25.7377 28.9041 25.7363ZM33.268 23.5206L28.4778 25.4524C28.4778 25.4524 32.0179 27.6681 33.268 23.5206ZM21.8993 36.6314H28.2562L26.6706 37.8099L26.7836 37.2209L25.6027 37.9823L25.7406 37.3069L25.0778 38.241L24.0655 37.2637L24.2594 38.0111L21.8993 36.6314ZM20.3598 35.2194C20.3598 35.2194 26.1091 36.1922 29.486 35.2194L28.9122 35.9402C28.9122 35.9402 20.7957 36.3007 20.3598 35.2194ZM23.3009 28.9303L25.1596 29.7048L27.6802 28.9303L26.0191 25.4105L25.6027 26.8563L25.4765 25.4105L24.8824 26.6574V25.6288L23.3009 28.9303ZM21.0977 35.0673C21.4291 35.1321 21.77 35.1852 22.1064 35.1955C22.3858 35.2041 22.6598 35.1811 22.9365 35.209C23.3335 35.1883 23.7567 35.1888 24.2011 35.2189V32.5032L22.12 29.3268C22.12 29.3268 19.6676 31.1249 19.6143 34.26L21.61 33.5751L21.0977 35.0673ZM7.79748 18.6134L7.95482 20.1367C7.95482 20.1367 6.18746 20.5677 5.64129 20.97L6.00118 21.429C6.00118 21.429 5.03861 21.6311 5.12361 23.4126C5.12361 23.4126 3.64786 19.562 7.79748 18.6134ZM42.4982 18.5846L42.2152 20.0503C42.2152 20.0503 43.936 20.2514 44.5762 21.056L44.0838 21.429C44.0838 21.429 45.1314 22.1409 45.1034 23.553C45.0749 24.9646 44.5762 25.7368 44.5762 25.7368C44.5762 25.7368 46.179 24.4475 45.6409 21.6599C45.1029 18.8722 42.4982 18.5846 42.4982 18.5846ZM24.7265 17.8417L9.79769 18.4469L9.55761 18.1608C9.07293 17.5825 9.22982 14.7453 9.2366 14.6247C9.32748 13.0408 9.65798 10.6648 10.7164 8.33976C13.478 2.27347 19.074 1 23.2819 1C23.7503 1 24.2364 1.0153 24.7265 1.045C25.2166 1.01485 25.7022 1 26.171 1C30.3785 1 35.9736 2.27347 38.7356 8.34066C39.794 10.6657 40.1245 13.0417 40.2159 14.6252C40.2227 14.7458 40.38 17.583 39.8953 18.1608L39.6552 18.4469L24.7265 17.8417ZM24.6604 1.91618C8.25594 0.881653 9.77554 17.4048 10.0712 17.7576L24.6604 17.1658L39.2497 17.7576C39.5454 17.4048 41.065 0.881653 24.6604 1.91618ZM10.4185 17.6095C10.4185 17.6095 10.3421 3.0614 24.7305 3.40609V13.8494L10.4185 17.6095ZM38.9725 17.6095C38.9725 17.6095 39.0489 3.0614 24.6604 3.40609V13.8494L38.9725 17.6095ZM42.3689 25.5293C36.6581 22.8708 30.737 21.5042 24.769 21.4677C18.8063 21.5042 12.8848 22.8708 7.17445 25.5293L6.0473 26.054L10.0473 17.322L10.1232 17.2563C10.2982 17.1051 14.526 13.552 24.7644 13.3859C35.0173 13.5524 39.2452 17.1051 39.4201 17.2563L39.4961 17.322L43.496 26.054L42.3689 25.5293ZM39.0132 17.5506C39.0132 17.5506 34.8527 13.9561 24.6605 13.7905C14.4682 13.9561 10.3077 17.5506 10.3077 17.5506L6.87243 25.0492C13.3808 22.019 19.4461 20.9772 24.66 20.9453C29.8744 20.9772 35.9392 22.019 42.4476 25.0492L39.0123 17.5506H39.0132ZM11.868 17.6226C11.868 17.6226 10.1128 19.6957 8.85862 23.4909C8.85862 23.4909 18.5115 17.8147 34.2514 20.9988C34.2514 20.9988 33.2477 19.0103 28.3258 18.4069C28.3258 18.4069 30.794 17.8782 35.2113 19.4788C35.2113 19.4788 34.3617 17.3724 26.3772 17.1136C26.3772 17.1136 28.3882 16.0791 33.1166 17.1136C33.1166 17.1136 23.9465 12.355 11.868 17.6226ZM12.7862 17.9758C12.7862 17.9758 12.1998 18.0357 10.6486 22.2062C10.6486 22.2062 13.9446 19.6223 22.5531 19.3163C22.5531 19.3163 20.6863 18.3493 17.2885 18.766C17.2885 18.766 19.0722 18.0622 23.1494 17.9758C23.1494 17.9758 18.7322 15.8204 12.7862 17.9758ZM10.3077 17.5812L6.87243 25.0798C6.87243 25.0798 10.9221 23.2389 15.9398 21.9726C15.9398 21.9726 11.2314 22.5598 7.49365 24.4993L10.3077 17.5812ZM11.8996 15.1418C11.8996 15.1418 14.3529 5.38919 22.0449 4.69935C29.7369 4.00952 33.1161 7.88932 33.1161 7.88932C33.1161 7.88932 30.1995 6.25136 24.3381 7.19949C24.3381 7.19949 32.4723 7.02714 32.5247 9.44088C32.5776 11.8546 26.4617 11.1652 26.4617 11.1652L33.8011 12.9755C33.8011 12.9755 20.5267 11.1868 11.8996 15.1418ZM9.94825 17.2711C9.94825 17.2711 8.74514 4.49281 18.3533 2.57991C18.3533 2.57991 10.4008 4.23766 10.5564 16.7392L9.94825 17.2711ZM43.8993 18.905C43.8993 18.905 47.7293 20.1619 46.0257 26.3636C46.0257 26.3636 46.958 20.6199 43.8993 18.905ZM30.1033 8.74869L27.4376 7.39764C27.2467 7.30085 27.0203 7.43891 27.0203 7.65218C27.0203 7.76189 27.0835 7.86191 27.1828 7.90953L29.5071 9.02388C29.5125 9.02648 29.5182 9.02076 29.5155 9.01539C29.5125 9.00945 29.5035 9.01156 29.5035 9.0182V9.06572C29.5035 9.07237 29.5125 9.07448 29.5155 9.06854C29.5182 9.06317 29.5125 9.05745 29.5071 9.06005L27.1828 10.1744C27.0835 10.222 27.0203 10.322 27.0203 10.4317C27.0203 10.645 27.2467 10.7831 27.4376 10.6863L30.1033 9.33524C30.2141 9.27906 30.2839 9.16575 30.2839 9.04197C30.2839 8.91818 30.2141 8.80487 30.1033 8.74869ZM25.5392 5.84766L24.0091 11.5045C23.964 11.6716 24.0904 11.8358 24.2643 11.8358C24.3838 11.8358 24.4884 11.756 24.5195 11.6412L26.0496 5.98436C26.0948 5.81728 25.9683 5.65305 25.7944 5.65305C25.6749 5.65305 25.5703 5.73284 25.5392 5.84766ZM23.0371 10.4317C23.0371 10.645 22.8108 10.7831 22.6198 10.6863L19.9542 9.33524C19.8433 9.27906 19.7735 9.16575 19.7735 9.04197C19.7735 8.91818 19.8433 8.80487 19.9542 8.74869L22.6198 7.39764C22.8108 7.30085 23.0371 7.43891 23.0371 7.65218C23.0371 7.76189 22.974 7.86191 22.8747 7.90953L20.5504 9.02388C20.5449 9.02648 20.5393 9.02076 20.542 9.01539C20.545 9.00945 20.554 9.01156 20.554 9.01821V9.06572C20.554 9.07237 20.545 9.07448 20.542 9.06854C20.5393 9.06317 20.5449 9.05745 20.5504 9.06005L22.8747 10.1744C22.974 10.222 23.0371 10.322 23.0371 10.4317Z" stroke="white" stroke-width="0.5"/>
</g>
<g clip-path="url(#clip0_106_5)">
<path d="M13.7549 17.004L17.9931 11.1902L24.8301 11.4874V40.4183L20.016 41.2358L13.4505 32.4395L12.4189 20.8502L13.7549 17.004Z" fill="#72718B"/>
<path d="M35.9053 17.004L31.667 11.1902L24.8301 11.4874V40.4183L29.6441 41.2358L36.2097 32.4395L37.2413 20.8502L35.9053 17.004Z" fill="#72718B"/>
<path d="M20.736 45.2471C21.0379 45.5338 24.1705 48.2999 24.1705 48.2999V47.4768L24.8301 48.7626L25.4896 47.5284V48.4026C25.4896 48.4026 28.042 46.2111 28.6806 45.483C29.3192 44.755 20.7364 45.2471 20.7364 45.2471H20.736Z" fill="black"/>
<path d="M19.1101 33.5933L18.4526 34.5154H19.3078C19.3078 34.5154 18.5262 36.7013 19.1314 36.6244C19.7366 36.5471 20.3671 35.9044 20.3671 35.9044C20.3671 35.9044 20.5942 37.9875 20.8966 38.1933L21.2244 36.6244C21.2244 36.6244 22.291 37.8329 22.3248 38.296L22.5104 37.7044C22.5104 37.7044 23.3705 38.4124 23.4937 39.2987L24.8301 37.8502L24.8994 41.2353L23.1909 41.6646L20.6977 39.4014C20.6977 39.4014 18.0974 37.164 18.0467 37.0613C17.9964 36.9586 16.2722 35.4264 16.4788 35.2923C16.6853 35.1582 19.1097 33.5933 19.1097 33.5933H19.1101Z" fill="#52516A"/>
<path d="M22.7791 25.5054C22.7791 25.5054 22.7537 29.4233 18.6245 29.8059L19.6291 29.4362C19.6291 29.4362 18.6801 29.6677 17.8027 28.9731L19.119 28.4882C19.119 28.4882 18.1224 27.6563 17.4669 28.4882C16.8118 29.3202 15.8282 29.8059 15.8282 29.8059L14.1262 26.0571C14.1262 26.0571 15.5415 27.0353 16.4792 26.9048C16.4792 26.9048 15.6768 26.6511 15.866 25.4398C15.866 25.4398 16.7981 26.1115 17.4669 26.1538C17.4669 26.1538 17.1041 25.4817 16.7917 24.1995L22.7791 25.5054Z" fill="#52516A"/>
<path d="M24.8301 45.8346C24.8301 45.8346 21.2884 47.7801 19.6497 43.3922L20.244 45.8833C20.244 45.8833 15.4601 46.0698 14.644 38.7072C14.644 38.7072 11.9969 40.4179 9.6475 35.2862H10.3477L9.23639 34.3665C9.23639 34.3665 9.64468 32.8318 10.665 32.5346C10.665 32.5346 4.85801 31.3861 5.25743 22.8186C5.41044 19.5358 8.95656 17.2259 11.8258 19.3026L13.2991 29.6851L17.0933 39.3024L23.042 43.9133L24.8305 45.835L24.8301 45.8346Z" fill="black"/>
<path d="M11.3197 31.8189C11.3197 31.8189 7.05283 31.7388 6.29625 25.8621C5.53968 19.9855 8.72583 18.5837 11.1989 19.5353C13.672 20.4869 8.08602 25.4401 8.08602 25.4401L11.8306 31.0952L11.3197 31.8189Z" fill="#5AFFE2"/>
<path d="M13.7295 30.695C13.5302 30.8331 13.3337 30.9519 13.1384 31.0518C10.9794 32.1564 9.12643 30.9785 7.91889 29.0379C6.27609 26.4018 5.82351 22.3599 7.40793 20.7177C10.2651 17.7582 12.8485 20.7177 12.8485 20.7177L13.7295 30.695Z" fill="#72718B"/>
<path d="M13.2986 29.6847C13.2986 29.6847 13.2133 30.524 13.1388 31.0519C10.9798 32.1565 9.12681 30.9786 7.91927 29.038L9.24599 29.6296C7.6954 28.2789 7.5899 26.5469 7.5899 26.5469C7.8625 27.5931 13.2986 29.6847 13.2986 29.6847Z" fill="#52516A"/>
<path d="M12.8952 23.3633C12.8952 23.3633 10.7016 20.3886 8.04854 22.0248L8.76283 22.4484C8.76283 22.4484 7.74252 22.1617 7.43651 23.7664C7.1305 25.3712 8.66096 27.0074 8.66096 27.0074L7.58952 26.5475C7.58952 26.5475 10.4991 31.8116 13.2987 29.6849L12.8952 23.3633Z" fill="black"/>
<path d="M24.8301 37.8506V45.835C24.8301 45.835 21.3267 46.6344 19.336 41.7548C19.336 41.7548 19.0489 42.553 19.6577 44.4159C19.6577 44.4159 16.5537 43.5283 16.4321 38.9154C16.4321 38.9154 15.9457 40.7767 16.8573 42.729C16.8054 42.6742 14.8006 40.5612 15.6417 37.4963C15.6417 37.4963 13.0249 39.6258 11.1997 35.7228C11.1997 35.7228 12.3561 36.6087 13.0249 36.3437L11.1997 34.7462C11.1997 34.7462 11.9301 32.4395 13.4509 32.4395C13.4509 32.4395 11.9901 32.2624 11.1997 32.9727C11.1997 32.9727 11.1385 30.666 12.5989 29.5123C12.5989 29.5123 10.1649 27.0647 10.5909 23.7641L11.7473 25.2324C11.7473 25.2324 11.6861 22.3301 10.1037 21.3524C10.1037 21.3524 10.5297 19.9014 11.5041 20.4048C11.5041 20.4048 11.4429 18.9551 13.7553 17.0044C13.7545 17.0056 13.7545 17.0072 13.7545 17.0084C13.7299 17.1816 12.8167 23.7186 15.3989 26.244H14.4885C14.4885 26.244 15.8249 27.9164 17.3457 27.3832C17.3457 27.3832 17.4363 28.7146 16.1128 29.5127H17.3469C17.3469 29.5127 15.9465 30.4003 16.4329 31.8194C16.9201 33.2385 19.1109 33.5941 19.1109 33.5941L17.1633 35.1026L18.8669 34.747C18.8669 34.747 17.8933 35.7236 18.6237 36.8765C19.3541 38.0303 20.2444 36.5221 20.2444 36.5221C20.2444 36.5221 20.2673 38.7394 21.3017 39.3604V36.9659C21.3017 36.9659 22.2753 38.5622 22.2753 39.8936L22.5604 38.385C22.5604 38.385 23.3097 39.5376 23.3097 40.7795L24.8305 37.8523L24.8301 37.8506Z" fill="#14222F"/>
<path d="M24.8301 42.427V45.8342C24.8301 45.8342 21.3267 46.6344 19.3356 41.7552L19.3344 41.7581C19.3195 41.8052 19.0686 42.6094 19.6585 44.4163C19.6585 44.4163 16.5549 43.5287 16.4329 38.9162C16.4329 38.9162 15.9465 40.7767 16.8573 42.7286C16.8058 42.6746 14.8014 40.5612 15.6429 37.4967C15.6429 37.4967 13.0257 39.6254 11.2001 35.7232C11.2001 35.7232 12.2261 36.5097 12.9037 36.3784C12.9456 36.3715 12.9863 36.359 13.0245 36.3437L13.0233 36.3425L12.2208 35.639L11.2001 34.7462C11.2001 34.7462 11.9305 32.4404 13.4513 32.4404C13.4513 32.4404 11.9901 32.2636 11.2001 32.9727C11.2001 32.9727 11.1393 30.6669 12.6001 29.5127C12.6001 29.5127 11.0386 27.9426 10.6364 25.6214C10.6352 25.6186 10.6336 25.6146 10.6336 25.6117C10.6324 25.6033 10.6308 25.5952 10.6296 25.5884C10.5345 25.0202 10.5088 24.4081 10.5917 23.7637L11.7477 25.2332C11.7477 25.2332 11.6869 22.3305 10.1037 21.3532C10.1037 21.3532 10.5305 19.9018 11.5053 20.4048C11.5053 20.4048 11.4429 18.9563 13.7565 17.0044C13.7553 17.0056 13.7553 17.0072 13.7553 17.0084C11.5923 22.6704 14.2365 25.5731 14.2365 25.5731C13.6836 25.6657 12.911 24.8003 12.911 24.8003C13.4014 28.7508 16.4337 28.2216 16.4337 28.2216C15.992 29.3746 14.5836 30.1429 14.497 30.1901C15.2101 29.8598 15.87 30.5275 15.87 30.5275C14.3915 31.5423 15.1557 33.874 15.1557 33.874C16.5328 33.2784 17.4681 33.874 17.4681 33.874C16.3391 34.2763 16.114 36.3288 16.114 36.3288H17.7065C16.9785 39.2359 18.5239 40.939 18.5239 40.939C18.5742 39.1546 20.031 39.0797 20.031 39.0797C19.8168 41.6385 21.4813 42.2039 21.4813 42.2039C21.5329 40.939 22.5616 40.7167 22.5616 40.7167V42.7999C23.4873 42.6505 24.44 40.4195 24.44 40.4195L24.8317 42.4282L24.8301 42.427Z" fill="#2E4054"/>
<path d="M30.5509 33.5933L31.2085 34.5154H30.3532C30.3532 34.5154 31.1348 36.7013 30.5296 36.6244C29.9244 36.5471 29.2939 35.9044 29.2939 35.9044C29.2939 35.9044 29.0668 37.9875 28.7644 38.1933L28.4366 36.6244C28.4366 36.6244 27.37 37.8329 27.3362 38.296L27.1506 37.7044C27.1506 37.7044 26.2905 38.4124 26.1673 39.2987L24.8309 37.8502L25.0194 41.2353L26.4701 41.6646L28.9633 39.4014C28.9633 39.4014 31.5636 37.164 31.6143 37.0613C31.6647 36.9586 33.3888 35.4264 33.1822 35.2923C32.9757 35.1582 30.5513 33.5933 30.5513 33.5933H30.5509Z" fill="#52516A"/>
<path d="M27.217 25.5055C27.217 25.5055 26.942 29.0864 30.3669 29.806C33.7922 30.5256 30.5501 33.593 30.5501 33.593C30.5501 33.593 34.8097 34.1374 36.3615 29.6844C37.9133 25.2317 37.433 23.047 37.0573 22.9174C36.6816 22.7877 28.9238 19.5347 28.9238 19.5347L18.4369 21.2115L13.2983 23.8939C13.2983 23.8939 26.5446 22.8437 27.2166 25.5051L27.217 25.5055Z" fill="#52516A"/>
<path d="M24.8301 45.8351C24.8301 45.8351 28.3718 47.7805 30.0106 43.3927L29.4163 45.8838C29.4163 45.8838 34.2001 46.0703 35.0163 38.7077C35.0163 38.7077 37.6633 40.4183 40.0127 35.2867H39.3125L40.4239 34.3669C40.4239 34.3669 40.0156 32.8323 38.9953 32.5351C38.9953 32.5351 44.8022 31.3866 44.4028 22.8191C44.2498 19.5363 40.7037 17.2264 37.8344 19.3031L36.3611 29.6855L32.567 39.3029L26.6183 43.9138L24.8297 45.8355L24.8301 45.8351Z" fill="black"/>
<path d="M42.8425 27.8685C41.7662 30.4216 39.7212 32.3691 37.2409 31.3172C36.9534 31.1956 36.6594 31.0337 36.3611 30.8264L37.2409 20.8502C37.2409 20.8502 39.8255 17.8908 42.6827 20.8502C44.0243 22.2395 43.9051 25.3484 42.8425 27.8681V27.8685Z" fill="#72718B"/>
<path d="M42.8425 27.8684C41.7662 30.4216 39.7212 32.369 37.2408 31.3172V29.8062C37.2408 29.8062 40.3799 29.2545 41.4372 27.802C41.4372 27.802 41.3966 29.2505 40.7922 29.8062C40.7922 29.8062 41.8536 29.5119 42.8429 27.8684H42.8425Z" fill="#52516A"/>
<path d="M36.7649 23.3636C36.7649 23.3636 38.9585 20.3888 41.6116 22.025L40.8973 22.4486C40.8973 22.4486 41.9176 22.1619 42.2236 23.7667C42.5296 25.3714 40.9991 27.0076 40.9991 27.0076L42.0706 26.5477C42.0706 26.5477 39.1611 31.8119 36.3615 29.6852L36.7649 23.3636Z" fill="black"/>
<path d="M24.8301 37.8506V45.835C24.8301 45.835 28.3336 46.6344 30.3242 41.7548C30.3242 41.7548 30.6113 42.553 30.0025 44.4159C30.0025 44.4159 33.1065 43.5283 33.2281 38.9154C33.2281 38.9154 33.7145 40.7767 32.8029 42.729C32.8549 42.6742 34.8597 40.5612 34.0185 37.4963C34.0185 37.4963 36.6353 39.6258 38.4605 35.7228C38.4605 35.7228 37.3041 36.6087 36.6353 36.3437L38.4605 34.7462C38.4605 34.7462 37.7301 32.4395 36.2093 32.4395C36.2093 32.4395 37.6701 32.2624 38.4605 32.9727C38.4605 32.9727 38.5217 30.666 37.0613 29.5123C37.0613 29.5123 39.4953 27.0647 39.0693 23.7641L37.9129 25.2324C37.9129 25.2324 37.9741 22.3301 39.5566 21.3524C39.5566 21.3524 39.1305 19.9014 38.1561 20.4048C38.1561 20.4048 38.2173 18.9551 35.9049 17.0044C35.9057 17.0056 35.9057 17.0072 35.9057 17.0084C35.9303 17.1816 36.8435 23.7186 34.2613 26.244H35.1717C35.1717 26.244 33.8353 27.9164 32.3145 27.3832C32.3145 27.3832 32.2239 28.7146 33.5474 29.5127H32.3133C32.3133 29.5127 33.7137 30.4003 33.2273 31.8194C32.7401 33.2385 30.5493 33.5941 30.5493 33.5941L32.4969 35.1026L30.7933 34.747C30.7933 34.747 31.7669 35.7236 31.0365 36.8765C30.3061 38.0303 29.4159 36.5221 29.4159 36.5221C29.4159 36.5221 29.3929 38.7394 28.3585 39.3604V36.9659C28.3585 36.9659 27.3849 38.5622 27.3849 39.8936L27.0998 38.385C27.0998 38.385 26.3505 39.5376 26.3505 40.7795L24.8297 37.8523L24.8301 37.8506Z" fill="#14222F"/>
<path d="M22.779 25.5055L16.4792 22.9177C16.4792 22.9177 16.914 26.6375 19.6291 26.8803C22.3442 27.1227 22.779 25.5055 22.779 25.5055Z" fill="black"/>
<path d="M22.779 25.5054C22.779 25.5054 22.3816 28.2454 19.4081 28.8059C19.4081 28.8059 22.2033 27.5269 21.6086 25.5054H22.779Z" fill="black"/>
<path d="M21.6891 26.1538C21.6891 26.1538 20.1216 28.8237 16.7913 26.1538C16.7913 26.1538 19.3912 29.2953 21.6891 26.9048C21.6891 26.9048 22.5431 26.155 21.6891 26.1538Z" fill="black"/>
<path d="M17.5249 24.0818L21.791 25.8106C21.791 25.8106 18.6382 27.7935 17.5249 24.0818Z" fill="#7AF4F1"/>
<path d="M27.217 25.5055L33.5169 22.9177C33.5169 22.9177 33.082 26.6375 30.367 26.8803C27.6519 27.1227 27.217 25.5055 27.217 25.5055Z" fill="black"/>
<path d="M27.217 25.5054C27.217 25.5054 27.6145 28.2454 30.588 28.8059C30.588 28.8059 27.7928 27.5269 28.3875 25.5054H27.217Z" fill="black"/>
<path d="M28.3069 26.1538C28.3069 26.1538 29.8744 28.8237 33.2047 26.1538C33.2047 26.1538 30.6048 29.2953 28.3069 26.9048C28.3069 26.9048 27.4529 26.155 28.3069 26.1538Z" fill="black"/>
<path d="M32.1933 24.1709L27.9272 25.8997C27.9272 25.8997 31.08 27.8826 32.1933 24.1709Z" fill="#7AF4F1"/>
<path d="M37.9134 25.2323L39.0694 23.7628C39.4571 26.7597 37.485 29.0543 37.1206 29.451C37.0827 29.4913 37.0622 29.5118 37.0622 29.5118C38.5218 30.6659 38.461 32.9718 38.461 32.9718C37.671 32.2627 36.2098 32.4394 36.2098 32.4394C37.7306 32.4394 38.461 34.7453 38.461 34.7453L36.6354 36.3432C37.305 36.6086 38.461 35.7227 38.461 35.7227C36.6354 39.6249 34.0194 37.4962 34.0194 37.4962C34.8597 40.5607 32.8549 42.6741 32.8038 42.7281C32.8038 42.7281 32.805 42.7269 32.8066 42.7224C33.7134 40.7722 33.2282 38.9157 33.2282 38.9157C33.1074 43.5282 30.0026 44.4158 30.0026 44.4158C30.6126 42.5525 30.3251 41.7547 30.3251 41.7547C28.334 46.6343 24.8306 45.8337 24.8306 45.8337V42.4264L25.2223 40.4178C25.2223 40.4178 26.175 42.6487 27.1007 42.7981V40.715C27.1007 40.715 28.1295 40.9377 28.181 42.2021C28.181 42.2021 29.8455 41.6368 29.6313 39.078C29.6313 39.078 31.0897 39.1525 31.1401 40.9373C31.1401 40.9373 32.6838 39.2342 31.9574 36.3271H33.5487C33.5487 36.3271 33.3236 34.2746 32.1946 33.8723C32.1946 33.8723 33.1299 33.2767 34.507 33.8723C34.507 33.8723 35.2716 31.5402 33.7927 30.5258C33.7927 30.5258 34.4526 29.8581 35.1657 30.1883C35.0792 30.1412 33.6707 29.3729 33.229 28.2199C33.229 28.2199 36.2609 28.7495 36.7518 24.7986C36.7518 24.7986 35.9791 25.664 35.4262 25.5714C35.4262 25.5714 38.0704 22.6687 35.9074 17.0067V17.0027C38.2198 18.9546 38.1586 20.4031 38.1586 20.4031C39.1318 19.9001 39.5586 21.3515 39.5586 21.3515C37.9754 22.3288 37.9146 25.2315 37.9146 25.2315L37.9134 25.2323Z" fill="#2E4054"/>
<path d="M21.4354 44.8162L23.2791 46.7182V46.2563L24.7255 47.5284L26.2297 46.2643L26.0784 46.9235L28.5087 44.5649L24.7617 44.2109L21.4354 44.8162Z" fill="#2E4054"/>
<path d="M22.0687 35.9041H27.73L26.3179 36.9587L26.4185 36.4316L25.3668 37.113L25.4896 36.5085L24.8993 37.3445L23.9978 36.4698L24.1705 37.1387L22.0687 35.9041Z" fill="#52516A"/>
<path d="M20.6978 34.6404C20.6978 34.6404 25.8178 35.511 28.8252 34.6404L28.3142 35.2855C28.3142 35.2855 21.0859 35.6081 20.6978 34.6404Z" fill="black"/>
<path d="M22.7791 29.3979L24.7255 32.388V35.0148L25.12 35.0177V32.4452L27.73 29.3979L25.3669 30.5167L24.6916 30.3749L22.7791 29.3979Z" fill="#52516A"/>
<path d="M22.7791 29.3979L24.9723 30.1909L27.73 29.3979L24.9723 31.0949L22.7791 29.3979Z" fill="black"/>
<path d="M23.317 29.0122L24.9723 29.7053L27.2171 29.0122L25.7377 25.8623L25.3669 27.1562L25.2546 25.8623L24.7255 26.9782V26.0576L23.317 29.0122Z" fill="#8888A5"/>
<path d="M21.3549 34.5042C21.65 34.5622 21.9536 34.6097 22.2532 34.619C22.502 34.6266 22.746 34.6061 22.9925 34.6311C23.346 34.6125 23.7229 34.6129 24.1187 34.6399V32.2096L22.2653 29.3669C22.2653 29.3669 20.0813 30.9761 20.0338 33.7818L21.8111 33.1688L21.3545 34.5042H21.3549Z" fill="url(#paint0_linear_106_5)"/>
<path d="M21.2047 34.4807C21.2274 34.4852 21.2501 34.4896 21.2728 34.4941L21.2047 34.4807Z" fill="#8888A5"/>
<path d="M21.5473 32.3731L19.7036 31.6885C19.7696 31.9937 19.8313 32.3006 19.9194 32.599" fill="#72718B"/>
<path d="M9.51019 19.7793L9.65031 21.1424C9.65031 21.1424 8.07636 21.5282 7.58996 21.8882L7.91047 22.299C7.91047 22.299 7.05323 22.4798 7.12893 24.0741C7.12893 24.0741 5.81509 20.6282 9.51059 19.7793H9.51019Z" fill="#8888A5"/>
<path d="M40.4134 19.7537L40.1614 21.0653C40.1614 21.0653 41.6939 21.2453 42.264 21.9653L41.8255 22.2991C41.8255 22.2991 42.7585 22.9362 42.7335 24.1999C42.7081 25.4632 42.264 26.1542 42.264 26.1542C42.264 26.1542 43.6914 25.0005 43.2122 22.5057C42.7331 20.011 40.4134 19.7541 40.4134 19.7541V19.7537Z" fill="#8888A5"/>
<path d="M16.4321 38.9157C16.4321 38.9157 15.9457 40.7762 16.8565 42.7281C16.8049 42.6741 14.8006 40.5607 15.6421 37.4962C15.6421 37.4962 13.0249 39.6248 11.1993 35.7227C13.7947 38.7679 15.9554 36.8422 15.9554 36.8422C15.3631 38.8702 16.0178 40.508 16.0178 40.508C15.7182 39.0123 16.5843 37.923 16.5843 37.923C16.2453 41.5985 19.119 43.4646 19.119 43.4646C18.8613 42.1349 19.3126 41.7728 19.3344 41.7575C19.3195 41.8047 19.0686 42.6089 19.6585 44.4158C19.6585 44.4158 16.5549 43.5282 16.4329 38.9157H16.4321Z" fill="#5AE3E2"/>
<path d="M19.334 41.7576C19.334 41.7576 21.106 44.6349 22.779 45.3678L23.0524 44.8278C23.0524 44.8278 23.9612 46.3186 24.7254 46.9235L26.5704 45.3678V46.1394C26.5704 46.1394 28.6126 44.5403 30.3247 41.7544C30.3247 41.7544 29.7477 44.5443 26.0787 46.9235V46.4575L24.7258 47.7402L23.2799 46.2562L23.3746 47.0072C23.3746 47.0072 19.6106 43.987 19.3348 41.7576H19.334Z" fill="#5AE3E2"/>
<path d="M13.0233 36.3433C13.1424 36.4372 13.2185 36.4956 13.2185 36.4956C13.1143 36.4706 13.0084 36.4307 12.9029 36.378C12.0368 35.9535 11.1993 34.7454 11.1993 34.7454C11.1993 34.7454 11.9297 32.4396 13.4505 32.4396C13.4505 32.4396 11.9893 32.2628 11.1993 32.9719C11.1993 32.9719 11.1385 30.6661 12.5993 29.5119C12.5993 29.5119 11.0378 27.9418 10.6356 25.6206C11.0056 27.5584 13.0482 29.5904 13.0482 29.5904C11.7239 30.4003 11.8379 32.2072 11.8379 32.2072C12.7458 31.7578 14.0134 32.3884 14.0134 32.3884C12.5373 32.5628 11.6305 34.2199 11.6116 34.7454C11.6035 34.9665 11.8882 35.3136 12.22 35.6382C12.5046 35.9173 12.8219 36.1815 13.0225 36.3417L13.0237 36.3429L13.0233 36.3433Z" fill="#7AF4F1"/>
<path d="M37.1208 29.4513C37.0829 29.4916 37.0624 29.5122 37.0624 29.5122C36.6933 29.1112 36.794 29.1692 37.1208 29.4513Z" fill="#04FFFF"/>
<path d="M36.2097 32.4396C37.7305 32.4396 38.4609 34.7455 38.4609 34.7455L36.6353 36.3434C37.3049 36.6088 38.4609 35.7228 38.4609 35.7228C36.6353 39.625 34.0193 37.4963 34.0193 37.4963C34.8596 40.5609 32.8548 42.6743 32.8037 42.7282C32.8037 42.7282 32.8049 42.727 32.8065 42.7226C32.8931 42.5845 34.6511 39.7104 33.6239 36.6241C33.6239 36.6241 36.0772 38.9908 37.8416 36.4706C37.8416 36.4706 36.9852 36.8564 36.2274 36.4706C36.2274 36.4706 37.2614 35.1075 38.0695 34.7221C38.0695 34.7221 37.3633 32.5906 35.6734 32.4992C35.6734 32.4992 36.8076 31.5992 38.0695 32.3885C38.0695 32.3885 38.3244 30.886 37.0625 29.512C38.5221 30.6661 38.4613 32.972 38.4613 32.972C37.6713 32.2628 36.2101 32.4396 36.2101 32.4396H36.2097Z" fill="#5AE3E2"/>
<path d="M24.5865 19.0888L11.2915 19.6304L11.0777 19.3743C10.646 18.8568 10.7858 16.3178 10.7918 16.2098C10.8727 14.7923 11.1671 12.6661 12.1097 10.5853C14.569 5.15649 19.5526 4.01685 23.3 4.01685C23.7172 4.01685 24.15 4.03054 24.5865 4.05712C25.023 4.03013 25.4554 4.01685 25.873 4.01685C29.62 4.01685 34.6028 5.15649 37.0625 10.5861C38.0051 12.6669 38.2995 14.7931 38.3808 16.2102C38.3868 16.3182 38.527 18.8572 38.0953 19.3743L37.8815 19.6304L24.5865 19.0888Z" fill="black"/>
<path d="M24.5277 4.83664C9.91847 3.91083 11.2718 18.6976 11.5351 19.0134L24.5277 18.4838L37.5204 19.0134C37.7837 18.6976 39.137 3.91083 24.5277 4.83664Z" fill="#4230C6"/>
<path d="M11.8443 18.8811C11.8443 18.8811 11.7763 5.86172 24.5901 6.17019V15.5161L11.8443 18.8811Z" fill="#5F3EFF"/>
<path d="M37.2735 18.8811C37.2735 18.8811 37.3416 5.86172 24.5277 6.17019V15.5161L37.2735 18.8811Z" fill="#5F3EFF"/>
<path d="M40.2982 25.9686C35.2124 23.5895 29.9393 22.3665 24.6244 22.3338C19.3143 22.3665 14.0408 23.5895 8.95534 25.9686L7.95154 26.4382L11.5138 18.6237L11.5814 18.565C11.7372 18.4296 15.5024 15.2499 24.6203 15.1013C33.7512 15.2503 37.5163 18.4296 37.6722 18.565L37.7398 18.6237L41.302 26.4382L40.2982 25.9686Z" fill="black"/>
<path d="M37.3098 18.8281C37.3098 18.8281 33.6046 15.6113 24.5277 15.4631C15.4508 15.6113 11.7457 18.8281 11.7457 18.8281L8.68634 25.5387C14.4825 22.8269 19.884 21.8947 24.5273 21.8661C29.171 21.8947 34.5722 22.8269 40.3683 25.5387L37.3089 18.8281H37.3098Z" fill="#4F38F9"/>
<path d="M13.1352 18.8927C13.1352 18.8927 11.5721 20.7479 10.4552 24.1443C10.4552 24.1443 19.0517 19.0647 33.0691 21.9142C33.0691 21.9142 32.1752 20.1346 27.792 19.5946C27.792 19.5946 29.99 19.1214 33.9239 20.5538C33.9239 20.5538 33.1673 18.6688 26.0566 18.4372C26.0566 18.4372 27.8476 17.5114 32.0585 18.4372C32.0585 18.4372 23.892 14.1787 13.1352 18.8927Z" fill="#5F3EFF"/>
<path opacity="0.28" d="M13.953 19.2089C13.953 19.2089 13.4307 19.2624 12.0493 22.9947C12.0493 22.9947 14.9846 20.6824 22.651 20.4085C22.651 20.4085 20.9884 19.5431 17.9625 19.916C17.9625 19.916 19.551 19.2862 23.1821 19.2089C23.1821 19.2089 19.2482 17.2799 13.953 19.2089Z" fill="white"/>
<path d="M11.7457 18.8556L8.68634 25.5662C8.68634 25.5662 12.2929 23.9188 16.7614 22.7856C16.7614 22.7856 12.5683 23.3111 9.23958 25.0468L11.7457 18.8552V18.8556Z" fill="#5AE3E2"/>
<path opacity="0.25" d="M13.1634 16.6725C13.1634 16.6725 15.3482 7.94479 22.1984 7.32745C29.0487 6.71011 32.0581 10.1822 32.0581 10.1822C32.0581 10.1822 29.4606 8.71637 24.2407 9.56486C24.2407 9.56486 31.4847 9.41063 31.5314 11.5707C31.5785 13.7308 26.1319 13.1139 26.1319 13.1139L32.6681 14.7339C32.6681 14.7339 20.8459 13.1332 13.163 16.6725H13.1634Z" fill="white"/>
<path d="M11.4256 18.5781C11.4256 18.5781 10.3542 7.14255 18.9108 5.43066C18.9108 5.43066 11.8287 6.91422 11.9672 18.1021L11.426 18.5781H11.4256Z" fill="#7AF4F1"/>
<path d="M41.6611 20.0403C41.6611 20.0403 45.072 21.165 43.5548 26.7151C43.5548 26.7151 44.385 21.575 41.6611 20.0403Z" fill="#5AE3E2"/>
<g filter="url(#filter1_d_106_5)">
<path d="M20.3365 11.4762C20.2378 11.4259 20.1757 11.3245 20.1757 11.2137C20.1757 11.1029 20.2378 11.0015 20.3365 10.9513L22.7104 9.74218C22.8805 9.65555 23.0821 9.7791 23.0821 9.96997C23.0821 10.0681 23.0259 10.1577 22.9374 10.2003L20.8675 11.1975C20.8626 11.1999 20.8576 11.1947 20.86 11.1899C20.8627 11.1846 20.8707 11.1865 20.8707 11.1924V11.235C20.8707 11.2409 20.8627 11.2428 20.86 11.2375C20.8576 11.2327 20.8626 11.2276 20.8675 11.2299L22.9374 12.2271C23.0259 12.2698 23.0821 12.3593 23.0821 12.4574C23.0821 12.6483 22.8805 12.7719 22.7104 12.6852L20.3365 11.4762Z" fill="white"/>
<path d="M25.5376 8.18091C25.6925 8.18091 25.8051 8.32788 25.7649 8.47741L24.4022 13.5398C24.3746 13.6425 24.2814 13.714 24.175 13.714C24.0201 13.714 23.9075 13.567 23.9477 13.4175L25.3104 8.35507C25.338 8.25232 25.4312 8.18091 25.5376 8.18091Z" fill="white"/>
<path d="M29.5358 11.2137C29.5358 11.3245 29.4737 11.4259 29.3749 11.4762L27.001 12.6852C26.831 12.7719 26.6294 12.6483 26.6294 12.4574C26.6294 12.3593 26.6856 12.2698 26.7741 12.2271L28.844 11.2299C28.8488 11.2276 28.8539 11.2327 28.8515 11.2375C28.8488 11.2428 28.8408 11.2409 28.8408 11.235V11.1924C28.8408 11.1865 28.8488 11.1846 28.8515 11.1899C28.8539 11.1947 28.8488 11.1999 28.844 11.1975L26.7741 10.2003C26.6856 10.1577 26.6294 10.0681 26.6294 9.96997C26.6294 9.7791 26.831 9.65555 27.001 9.74218L29.3749 10.9513C29.4737 11.0015 29.5358 11.1029 29.5358 11.2137Z" fill="white"/>
<path d="M20.3365 11.4762C20.2378 11.4259 20.1757 11.3245 20.1757 11.2137C20.1757 11.1029 20.2378 11.0015 20.3365 10.9513L22.7104 9.74218C22.8805 9.65555 23.0821 9.7791 23.0821 9.96997C23.0821 10.0681 23.0259 10.1577 22.9374 10.2003L20.8675 11.1975C20.8626 11.1999 20.8576 11.1947 20.86 11.1899C20.8627 11.1846 20.8707 11.1865 20.8707 11.1924V11.235C20.8707 11.2409 20.8627 11.2428 20.86 11.2375C20.8576 11.2327 20.8626 11.2276 20.8675 11.2299L22.9374 12.2271C23.0259 12.2698 23.0821 12.3593 23.0821 12.4574C23.0821 12.6483 22.8805 12.7719 22.7104 12.6852L20.3365 11.4762Z" stroke="white" stroke-width="0.5"/>
<path d="M25.5376 8.18091C25.6925 8.18091 25.8051 8.32788 25.7649 8.47741L24.4022 13.5398C24.3746 13.6425 24.2814 13.714 24.175 13.714C24.0201 13.714 23.9075 13.567 23.9477 13.4175L25.3104 8.35507C25.338 8.25232 25.4312 8.18091 25.5376 8.18091Z" stroke="white" stroke-width="0.5"/>
<path d="M29.5358 11.2137C29.5358 11.3245 29.4737 11.4259 29.3749 11.4762L27.001 12.6852C26.831 12.7719 26.6294 12.6483 26.6294 12.4574C26.6294 12.3593 26.6856 12.2698 26.7741 12.2271L28.844 11.2299C28.8488 11.2276 28.8539 11.2327 28.8515 11.2375C28.8488 11.2428 28.8408 11.2409 28.8408 11.235V11.1924C28.8408 11.1865 28.8488 11.1846 28.8515 11.1899C28.8539 11.1947 28.8488 11.1999 28.844 11.1975L26.7741 10.2003C26.6856 10.1577 26.6294 10.0681 26.6294 9.96997C26.6294 9.7791 26.831 9.65555 27.001 9.74218L29.3749 10.9513C29.4737 11.0015 29.5358 11.1029 29.5358 11.2137Z" stroke="white" stroke-width="0.5"/>
</g>
</g>
<path d="M106.18 18.9349C105.352 18.9349 104.68 19.6065 104.68 20.4349V22.55C104.68 23.3784 105.352 24.05 106.18 24.05H111.429C112.257 24.05 112.929 24.7215 112.929 25.55V27.3048C112.929 28.1332 112.257 28.8048 111.429 28.8048H106.18C105.352 28.8048 104.68 29.4764 104.68 30.3048V32.8521C104.68 33.6805 105.352 34.3521 106.18 34.3521H112.51C113.338 34.3521 114.01 35.0236 114.01 35.8521V37.787C114.01 38.6154 113.338 39.287 112.51 39.287H100.021C99.1921 39.287 98.5205 38.6154 98.5205 37.787V15.5C98.5205 14.6716 99.1921 14 100.021 14H112.51C113.338 14 114.01 14.6716 114.01 15.5V17.4349C114.01 18.2634 113.338 18.9349 112.51 18.9349H106.18Z" fill="white"/>
<path d="M127.469 18.9349C126.641 18.9349 125.969 19.6065 125.969 20.4349V22.55C125.969 23.3784 126.641 24.05 127.469 24.05H132.718C133.547 24.05 134.218 24.7215 134.218 25.55V27.3048C134.218 28.1332 133.547 28.8048 132.718 28.8048H127.469C126.641 28.8048 125.969 29.4764 125.969 30.3048V32.8521C125.969 33.6805 126.641 34.3521 127.469 34.3521H133.799C134.627 34.3521 135.299 35.0236 135.299 35.8521V37.787C135.299 38.6154 134.627 39.287 133.799 39.287H121.31C120.481 39.287 119.81 38.6154 119.81 37.787V15.5C119.81 14.6716 120.481 14 121.31 14H133.799C134.627 14 135.299 14.6716 135.299 15.5V17.4349C135.299 18.2634 134.627 18.9349 133.799 18.9349H127.469Z" fill="white"/>
<path d="M157.79 14C158.618 14 159.29 14.6716 159.29 15.5V17.4349C159.29 18.2634 158.618 18.9349 157.79 18.9349H154.09C153.261 18.9349 152.59 19.6065 152.59 20.4349V37.787C152.59 38.6154 151.918 39.287 151.09 39.287H147.93C147.102 39.287 146.43 38.6154 146.43 37.787V20.4349C146.43 19.6065 145.758 18.9349 144.93 18.9349H141.23C140.402 18.9349 139.73 18.2634 139.73 17.4349V15.5C139.73 14.6716 140.402 14 141.23 14H157.79Z" fill="white"/>
<path d="M180.269 35.8391C180.062 35.2301 179.491 34.8203 178.848 34.8203H171.561C170.919 34.8203 170.347 35.2301 170.141 35.8391L169.318 38.2682C169.112 38.8772 168.54 39.287 167.897 39.287H164.663C163.623 39.287 162.899 38.2545 163.253 37.2766L171.316 14.9896C171.531 14.3957 172.095 14 172.727 14H177.754C178.386 14 178.95 14.3957 179.165 14.9896L187.229 37.2766C187.583 38.2545 186.858 39.287 185.818 39.287H182.512C181.869 39.287 181.298 38.8772 181.091 38.2682L180.269 35.8391ZM176.247 30.0655C177.274 30.0655 177.997 29.0571 177.668 28.0846L176.634 25.0294C176.173 23.6682 174.246 23.6715 173.79 25.0344L172.768 28.0895C172.443 29.0611 173.166 30.0655 174.191 30.0655H176.247Z" fill="white"/>
<path d="M211.813 22.1408C211.813 23.6057 211.477 24.9505 210.805 26.1752C210.132 27.3759 209.1 28.3485 207.707 29.0929C206.314 29.8374 204.585 30.2096 202.52 30.2096H200.202C199.373 30.2096 198.702 30.8812 198.702 31.7096V37.787C198.702 38.6154 198.03 39.287 197.202 39.287H194.042C193.213 39.287 192.542 38.6154 192.542 37.787V15.5C192.542 14.6716 193.213 14 194.042 14H202.52C204.537 14 206.242 14.3482 207.635 15.0446C209.028 15.741 210.072 16.7016 210.769 17.9263C211.465 19.1511 211.813 20.5559 211.813 22.1408ZM202.052 25.3107C203.228 25.3107 204.105 25.0345 204.681 24.4822C205.257 23.9299 205.546 23.1494 205.546 22.1408C205.546 21.1322 205.257 20.3518 204.681 19.7994C204.105 19.2471 203.228 18.9709 202.052 18.9709H200.202C199.373 18.9709 198.702 19.6425 198.702 20.4709V23.8107C198.702 24.6391 199.373 25.3107 200.202 25.3107H202.052Z" fill="white"/>
<path d="M224.481 18.9349C223.652 18.9349 222.981 19.6065 222.981 20.4349V22.55C222.981 23.3784 223.652 24.05 224.481 24.05H229.73C230.558 24.05 231.23 24.7215 231.23 25.55V27.3048C231.23 28.1332 230.558 28.8048 229.73 28.8048H224.481C223.652 28.8048 222.981 29.4764 222.981 30.3048V32.8521C222.981 33.6805 223.652 34.3521 224.481 34.3521H230.81C231.639 34.3521 232.31 35.0236 232.31 35.8521V37.787C232.31 38.6154 231.639 39.287 230.81 39.287H218.321C217.493 39.287 216.821 38.6154 216.821 37.787V15.5C216.821 14.6716 217.493 14 218.321 14H230.81C231.639 14 232.31 14.6716 232.31 15.5V17.4349C232.31 18.2634 231.639 18.9349 230.81 18.9349H224.481Z" fill="white"/>
<path d="M91.137 14C91.9654 14 92.637 14.6716 92.637 15.5V37.787C92.637 38.6154 91.9654 39.287 91.137 39.287H87.9773C87.1489 39.287 86.4773 38.6154 86.4773 37.787V32.4372C86.4773 30.7657 84.1559 30.3469 83.5719 31.9131L81.1859 38.3111C80.9671 38.8979 80.4067 39.287 79.7805 39.287H76.8911C76.2656 39.287 75.7057 38.8988 75.4863 38.313L73.0644 31.8443C72.4787 30.2799 70.1597 30.6998 70.1597 32.3702V37.787C70.1597 38.6154 69.4881 39.287 68.6597 39.287H65.5C64.6716 39.287 64 38.6154 64 37.787V15.5C64 14.6716 64.6716 14 65.5 14H70.2658C70.8766 14 71.4265 14.3704 71.6559 14.9365L76.9753 28.0594C77.4824 29.3105 79.2549 29.3073 79.7575 28.0545L85.019 14.9414C85.2471 14.3727 85.7983 14 86.4111 14H91.137Z" fill="white"/>
<defs>
<filter id="filter0_d_106_5" x="0.75" y="0.75" width="48.5" height="54.7869" filterUnits="userSpaceOnUse" color-interpolation-filters="sRGB">
<feFlood flood-opacity="0" result="BackgroundImageFix"/>
<feColorMatrix in="SourceAlpha" type="matrix" values="0 0 0 0 0 0 0 0 0 0 0 0 0 0 0 0 0 0 127 0" result="hardAlpha"/>
<feOffset dy="2"/>
<feGaussianBlur stdDeviation="1"/>
<feComposite in2="hardAlpha" operator="out"/>
<feColorMatrix type="matrix" values="0 0 0 0 0 0 0 0 0 0 0 0 0 0 0 0 0 0 0.44 0"/>
<feBlend mode="normal" in2="BackgroundImageFix" result="effect1_dropShadow_106_5"/>
<feBlend mode="normal" in="SourceGraphic" in2="effect1_dropShadow_106_5" result="shape"/>
</filter>
<filter id="filter1_d_106_5" x="17.9257" y="7.93091" width="13.8601" height="10.033" filterUnits="userSpaceOnUse" color-interpolation-filters="sRGB">
<feFlood flood-opacity="0" result="BackgroundImageFix"/>
<feColorMatrix in="SourceAlpha" type="matrix" values="0 0 0 0 0 0 0 0 0 0 0 0 0 0 0 0 0 0 127 0" result="hardAlpha"/>
<feOffset dy="2"/>
<feGaussianBlur stdDeviation="1"/>
<feComposite in2="hardAlpha" operator="out"/>
<feColorMatrix type="matrix" values="0 0 0 0 0 0 0 0 0 0 0 0 0 0 0 0 0 0 0.44 0"/>
<feBlend mode="normal" in2="BackgroundImageFix" result="effect1_dropShadow_106_5"/>
<feBlend mode="normal" in="SourceGraphic" in2="effect1_dropShadow_106_5" result="shape"/>
</filter>
<linearGradient id="paint0_linear_106_5" x1="20.0338" y1="32.0038" x2="24.1191" y2="32.0038" gradientUnits="userSpaceOnUse">
<stop stop-color="#8888A5"/>
<stop offset="0.18" stop-color="#8888A5" stop-opacity="0.8"/>
<stop offset="0.42" stop-color="#8888A5" stop-opacity="0.58"/>
<stop offset="0.64" stop-color="#8888A5" stop-opacity="0.43"/>
<stop offset="0.84" stop-color="#8888A5" stop-opacity="0.33"/>
<stop offset="1" stop-color="#8888A5" stop-opacity="0.3"/>
</linearGradient>
<clipPath id="clip0_106_5">
<rect width="39.1857" height="44.7458" fill="white" transform="translate(5.2373 4.01685)"/>
</clipPath>
</defs>
</svg>
